<svg width="87" height="89" viewBox="0 0 87 89" fill="none" xmlns="http://www.w3.org/2000/svg">
<g filter="url(#filter0_d)">
<path d="M50.75 7.25H21.75C19.8272 7.25 17.9831 8.01384 16.6235 9.37348C15.2638 10.7331 14.5 12.5772 14.5 14.5V72.5C14.5 74.4228 15.2638 76.2669 16.6235 77.6265C17.9831 78.9862 19.8272 79.75 21.75 79.75H65.25C67.1728 79.75 69.0169 78.9862 70.3765 77.6265C71.7362 76.2669 72.5 74.4228 72.5 72.5V29L50.75 7.25Z" stroke="#D81224" stroke-width="2" stroke-linecap="round" stroke-linejoin="round"/>
<path d="M50.75 7.25V29H72.5" stroke="#D81224" stroke-width="2" stroke-linecap="round" stroke-linejoin="round"/>
<path d="M58 47.125H29" stroke="#D81224" stroke-width="2" stroke-linecap="round" stroke-linejoin="round"/>
<path d="M58 61.625H29" stroke="#D81224" stroke-width="2" stroke-linecap="round" stroke-linejoin="round"/>
<path d="M36.25 32.625H32.625H29" stroke="#D81224" stroke-width="2" stroke-linecap="round" stroke-linejoin="round"/>
</g>
<defs>
<filter id="filter0_d" x="-4" y="0" width="95" height="95" filterUnits="userSpaceOnUse" color-interpolation-filters="sRGB">
<feFlood flood-opacity="0" result="BackgroundImageFix"/>
<feColorMatrix in="SourceAlpha" type="matrix" values="0 0 0 0 0 0 0 0 0 0 0 0 0 0 0 0 0 0 127 0"/>
<feOffset dy="4"/>
<feGaussianBlur stdDeviation="2"/>
<feColorMatrix type="matrix" values="0 0 0 0 0 0 0 0 0 0 0 0 0 0 0 0 0 0 0.25 0"/>
<feBlend mode="normal" in2="BackgroundImageFix" result="effect1_dropShadow"/>
<feBlend mode="normal" in="SourceGraphic" in2="effect1_dropShadow" result="shape"/>
</filter>
</defs>
</svg>
