<svg width="84" height="81" viewBox="0 0 84 81" fill="none" xmlns="http://www.w3.org/2000/svg">
<path d="M59.2918 70.875V64.125C59.2918 60.5446 57.8344 57.1108 55.2401 54.5791C52.6459 52.0473 49.1273 50.625 45.4585 50.625H17.7918C14.123 50.625 10.6044 52.0473 8.01019 54.5791C5.41593 57.1108 3.9585 60.5446 3.9585 64.125V70.875" stroke="#D1232D" stroke-width="2" stroke-linecap="round" stroke-linejoin="round"/>
<path d="M31.6248 37.125C39.2648 37.125 45.4582 31.0808 45.4582 23.625C45.4582 16.1692 39.2648 10.125 31.6248 10.125C23.9849 10.125 17.7915 16.1692 17.7915 23.625C17.7915 31.0808 23.9849 37.125 31.6248 37.125Z" stroke="#D1232D" stroke-width="2" stroke-linecap="round" stroke-linejoin="round"/>
<path d="M80.0415 70.875V64.125C80.0392 61.1338 79.0191 58.2281 77.1412 55.8641C75.2634 53.5 72.6342 51.8115 69.6665 51.0638" stroke="#D1232D" stroke-width="2" stroke-linecap="round" stroke-linejoin="round"/>
<path d="M55.8335 10.5638C58.8091 11.3073 61.4465 12.9961 63.3299 15.364C65.2133 17.732 66.2356 20.6443 66.2356 23.6419C66.2356 26.6395 65.2133 29.5518 63.3299 31.9197C61.4465 34.2876 58.8091 35.9765 55.8335 36.72" stroke="#D1232D" stroke-width="2" stroke-linecap="round" stroke-linejoin="round"/>
</svg>
