<svg width="52" height="20" viewBox="0 0 52 20" fill="none" xmlns="http://www.w3.org/2000/svg">
<g clip-path="url(#clip0)">
<path d="M8.44425 3H5.71414C2.98394 3 0.6348 4.99055 0.6348 8.84716C0.6348 11.1488 1.77758 12.8904 3.74586 13.7613L0.0633074 20.2305C-0.0636458 20.4172 0.0633073 20.6038 0.253839 20.6038H1.96811C2.09507 20.6038 2.22202 20.5416 2.28549 20.4172L5.65067 14.0723H6.85693V20.4172C6.85693 20.4794 6.9205 20.6038 7.04746 20.6038H8.5713C8.69825 20.6038 8.76173 20.5416 8.76173 20.4172V3.24876C8.69825 3.06219 8.63478 3 8.44425 3ZM6.85693 12.5795H5.8411C1.4602 12.5795 1.77758 4.49294 5.65067 4.49294H6.9205V12.5795H6.85693Z" fill="#FF0000"/>
<path d="M17.5875 8.84719H16.0637C15.9368 8.84719 15.8732 8.90938 15.8732 9.03386V13.5125H13.0795V9.03386C13.0795 8.90948 13.016 8.84719 12.8891 8.84719H11.4287C11.3018 8.84719 11.2383 8.90938 11.2383 9.03386V20.4172C11.2383 20.5416 11.3018 20.6038 11.4287 20.6038H12.9526C13.0795 20.6038 13.1431 20.5416 13.1431 20.4172V14.9432H15.9367V20.4172C15.9367 20.5416 16.0001 20.6038 16.1272 20.6038H17.6509C17.7779 20.6038 17.8415 20.5416 17.8415 20.4172V9.03386C17.778 8.90948 17.7145 8.84719 17.5876 8.84719H17.5875ZM51.8732 19.0488C51.8732 18.9866 51.8098 18.9866 51.7463 18.9866C51.1113 18.9866 47.2383 20.7906 47.2383 14.8189C47.2383 12.2064 48.2542 8.53635 50.6669 10.7135C50.7304 10.7756 50.7938 10.7756 50.8573 10.7756C50.9208 10.7756 50.9843 10.7135 51.0478 10.5891L51.6827 9.53157C51.7462 9.46938 51.7462 9.40719 51.7462 9.345C51.7462 9.22062 51.6192 9.15834 51.4923 9.09615C47.3018 7.04341 45.1431 10.8378 45.1431 15.2544C45.1431 20.9771 49.397 21.7858 51.8097 20.0441C51.9366 19.9819 51.9366 19.8574 51.9366 19.7953L51.8732 19.0488ZM41.4605 14.1347L44.3812 8.97177C44.4446 8.90948 44.3812 8.7851 44.3177 8.7851H42.8573C42.4129 8.7851 42.2859 8.90948 42.1589 9.22052C42.0319 9.53157 39.8732 13.9481 39.6192 14.1347V8.97167C39.6192 8.90938 39.5557 8.785 39.4923 8.785H37.9049C37.8415 8.785 37.778 8.84719 37.778 8.97167V20.4172C37.778 20.4794 37.8415 20.6038 37.9049 20.6038H39.4923C39.6192 20.6038 39.6192 20.5416 39.6192 20.4172V14.5078C39.8097 14.6322 42.4764 20.044 42.5398 20.2306C42.6668 20.4793 42.9208 20.6038 43.2383 20.6038H44.8256C44.9526 20.6038 44.9526 20.5416 44.8891 20.4172L41.4605 14.1347ZM27.5557 19.1111H27.2382C26.8574 19.1111 26.7938 18.9867 26.7938 18.6755V8.97167C26.7938 8.84729 26.7303 8.785 26.6668 8.785H21.7779C21.651 8.785 21.5875 8.84719 21.5875 8.97167C21.5875 11.5842 21.651 15.9385 19.8731 19.111H19.3653C19.2384 19.111 19.1748 19.1732 19.1748 19.2975V22.7187C19.1748 22.8431 19.3017 22.9054 19.3653 22.9054H20.5081C20.762 22.9054 20.8891 22.7187 20.8891 22.5322V20.6038H26.032V22.7187C26.032 22.781 26.0955 22.9054 26.2224 22.9054H27.4922C27.6192 22.9054 27.8097 22.781 27.8097 22.5322V19.2975C27.7462 19.1732 27.6828 19.111 27.5558 19.111L27.5557 19.1111ZM24.8891 19.1111H21.3334C22.3493 17.4938 23.3017 14.8812 23.3017 10.278H24.889V19.1111H24.8891ZM32.5081 8.53635C29.905 8.53635 28.6986 11.7087 28.6986 15.1921C28.6986 20.915 32.7621 21.7858 35.5557 20.1063C35.6826 20.0441 35.6826 19.9819 35.6826 19.9197L35.4922 19.1111C35.4922 19.0488 35.4287 18.9867 35.3018 18.9867C34.2859 18.9867 30.7304 20.7283 30.7304 15.0678C32.0002 15.1922 32.0002 15.1922 35.8097 15.1922C35.7462 12.3308 35.4288 8.53635 32.5081 8.53635ZM30.7939 13.7612C30.7939 9.22033 33.8415 8.34948 33.8415 13.6368C32.5082 13.6368 31.9368 13.6368 30.7939 13.7612Z" fill="black"/>
</g>
<defs>
<clipPath id="clip0">
<rect width="52" height="20" fill="white"/>
</clipPath>
</defs>
</svg>
