<svg xmlns="http://www.w3.org/2000/svg" viewBox="0 0 101.72 100.14"><path fill="#FFF" d="M46.77 97.13c.49 1.19.97 2.38 1.45 3.57 16.09.75 32.3-6.07 42.91-19.73 17.32-22.31 13.27-54.56-9.04-71.88A50.845 50.845 0 0 0 58.83-1c.16 1.19.3 2.38.42 3.57a47.524 47.524 0 0 1 20.71 9.25c20.8 16.15 24.59 46.22 8.43 67.03C78.15 92.04 62.3 98.37 46.77 97.13z"/><circle cx="49.34" cy="49.16" r="43.62" fill="#B71828"/><text transform="translate(54.483 104.558)"><tspan x="0" y="0" fill="#FFF" font-family="'SegoeUI'" font-size="13.725"></tspan><tspan x="-68.48" y="16.47" fill="#FFF" font-family="'SegoeUI'" font-size="13.725">Расчет стоимости </tspan><tspan x="-26.28" y="32.94" fill="#FFF" font-family="'SegoeUI'" font-size="13.725">ущерба</tspan></text><path fill="#FFF" d="M45.21 47.6h-3.73v3.74h3.73V47.6zM41.49 58.8h3.73v-3.74h-3.73v3.74zM48.94 43.88h3.72v-1.17h-3.72v1.17zM45.23 42.71h-3.74v1.17h3.74v-1.17zM34.02 58.78h3.74v-3.72h-3.74v3.72zM26.59 58.78h3.71v-3.73h-3.71v3.73zM30.31 47.6H26.6v3.75h3.71V47.6zM37.76 47.6h-3.73v3.75h3.73V47.6z"/><path fill="#FFF" d="M26.21 62.09c-1.37 0-2.1-.74-2.1-2.11V44.09 28.27c0-1.4.73-2.13 2.12-2.13h26.8c1.39 0 2.12.73 2.12 2.13v18.84L56.37 45V34.93c0-2.27.01-4.55 0-6.82-.01-1.86-1.31-3.18-3.15-3.18-9.06-.01-18.11-.01-27.17.01-.48 0-1.01.12-1.44.33-1.21.59-1.72 1.62-1.71 2.95.01 10.59 0 21.19 0 31.78 0 .17 0 .35.02.52.08.82.43 1.49 1.05 2.04.47.42 1.05.61 1.64.75h20.18l.7-1.22H26.21z"/><path fill="#FFF" d="M52.99 28.19H26.26c-.75 0-.93.18-.93.92v9.33c0 .1-.01.2 0 .3.04.45.24.66.69.66 1.61.01 3.22.01 4.84 0 .14 0 .3-.04.42-.11.26-.15.32-.42.23-.69-.1-.32-.37-.42-.68-.42h-4.24v-8.75h26.08v8.75H33.71c-.63 0-.92.2-.91.63.01.41.28.59.9.59h19.27c.79 0 .96-.17.96-.97v-9.3c0-.77-.18-.94-.94-.94zM53.21 46.36h-4.8c-.49 0-.7.21-.72.71-.01.27 0 .55 0 .82v11.25c0 .3.04.5.13.64l1.12-1.93V47.6h3.75c0 .61-.01 1.19 0 1.78.01.38.27.64.59.65.07 0 .13-.01.19-.03l.44-.77c.01-.74.02-1.47 0-2.21-.01-.44-.25-.66-.7-.66zM30.71 53.81h-4.5c-.67 0-.88.21-.88.87v4.54c0 .61.22.82.84.83h4.58c.62 0 .81-.19.81-.8.01-1.54.01-3.07 0-4.61-.01-.64-.22-.83-.85-.83zM38.3 53.81c-1.6-.01-3.19-.01-4.79 0-.51 0-.71.23-.71.75 0 1.57-.01 3.14 0 4.72 0 .54.2.74.74.75.79.01 1.57 0 2.36 0 .79 0 1.57.01 2.36 0 .54-.01.76-.22.76-.75.01-1.57.01-3.14 0-4.72 0-.5-.22-.75-.72-.75zM26.19 52.59h4.6c.54 0 .76-.21.76-.74.01-1.58.01-3.17 0-4.75 0-.52-.22-.72-.74-.73-.79-.01-1.57 0-2.36 0h-2.28c-.64 0-.84.2-.85.86v4.49c.01.67.21.86.87.87zM33.55 52.58h4.72c.5 0 .75-.23.76-.72.01-1.6.01-3.19 0-4.79 0-.47-.25-.71-.73-.71h-4.79c-.48 0-.7.23-.7.72-.01.8 0 1.6 0 2.4v2.36c-.01.52.21.74.74.74zM46.46 54.62c0-.59-.2-.8-.77-.81-1.56-.01-3.12-.01-4.68 0-.54 0-.77.24-.77.79v4.68c0 .53.22.76.75.76 1.58.01 3.17.01 4.75 0 .52 0 .72-.21.72-.73.01-.79 0-1.57 0-2.36v-2.33zM40.99 52.58h4.72c.53 0 .75-.22.75-.75v-2.32-2.4c0-.54-.21-.75-.74-.75H41c-.52 0-.76.23-.76.75-.01 1.57-.01 3.14 0 4.72-.01.52.23.75.75.75zM53.92 42.25c-.01-.59-.21-.78-.8-.79-.77-.01-1.55 0-2.32 0-.79 0-1.57-.01-2.36 0-.53.01-.73.2-.74.72-.01.74-.01 1.47 0 2.21.01.51.23.74.73.74 1.57.01 3.15.01 4.72 0 .55 0 .76-.23.77-.78.01-.7.01-1.4 0-2.1zM40.91 45.13c1.62.01 3.25.01 4.87 0 .47 0 .67-.24.67-.71.01-.72 0-1.45 0-2.17 0-.57-.19-.77-.76-.77-.77-.01-1.55 0-2.32 0-.8 0-1.6-.01-2.4 0-.51 0-.74.22-.74.73-.01.74-.01 1.47 0 2.21.01.45.23.71.68.71z"/><path fill="#FFF" d="M51.15 35.4c.03-.54.01-1.07.01-1.61h-.01c0-.56.02-1.12-.01-1.68-.04-.67-.51-1.15-1.04-1.12-.51.02-.96.51-.98 1.13-.03 1.1-.03 2.2 0 3.29.02.69.46 1.14 1.02 1.14.57 0 .98-.45 1.01-1.15zM46.24 35.43c.03-.54.01-1.07.01-1.61h-.01c0-.56.02-1.12-.01-1.68-.04-.67-.51-1.15-1.04-1.12-.51.02-.96.51-.98 1.13-.03 1.1-.03 2.2 0 3.29.02.69.46 1.14 1.02 1.14.57 0 .98-.44 1.01-1.15zM42.13 35.43c.03-.54 0-1.07 0-1.61h-.01c0-.56.02-1.12-.01-1.68-.04-.67-.51-1.15-1.04-1.12-.51.02-.96.51-.98 1.13-.03 1.1-.03 2.2 0 3.29.02.69.46 1.14 1.02 1.14.58 0 .98-.44 1.02-1.15zM61.35 50.13l.73 9.66h2.44l.73-9.66.04-1.38h-3.98zM63.3 62.16c-.81 0-1.55.65-1.55 1.55 0 .79.56 1.53 1.58 1.53.9 0 1.53-.74 1.53-1.53-.01-.85-.75-1.55-1.56-1.55z"/><path fill="#FFF" d="M79.45 65.13L65.77 41.46c-.25-.45-.62-.82-1.06-1.07-.65-.38-1.42-.48-2.15-.28-.73.2-1.34.67-1.72 1.32l-2.93 5.07-1.22 2.11-1.23 2.13-.44.77-4.53 7.85-1.12 1.93-1.33 2.31-.7 1.22-.09.15c-.32.47-.49 1.02-.49 1.59 0 1.57 1.28 2.85 2.85 2.85h27.38c.5 0 .99-.13 1.42-.38.66-.38 1.13-.99 1.32-1.73.2-.75.1-1.51-.28-2.17zm-1.34 1.73a1.168 1.168 0 0 1-1.13.87H49.61c-.65 0-1.17-.53-1.17-1.17 0-.24.07-.46.23-.71l.6-1.04.7-1.22 1.19-2.06.72-1.24 2.36-4.08 1.24-2.14 1.22-2.12 1.22-2.11 4.38-7.58c.15-.26.4-.45.7-.53.1-.03.2-.04.3-.04.2 0 .4.05.58.16.18.1.33.26.43.44L78 65.97c.15.27.2.58.11.89z"/></svg>