<svg xmlns="http://www.w3.org/2000/svg" viewBox="0 0 98.06 99.67"><path fill="#B71828" d="M85.39 81.4c1.27.2 2.54.41 3.8.62 9.04-13.33 11.69-30.71 5.58-46.89C84.79 8.71 55.18-4.67 28.75 5.31A50.801 50.801 0 0 0 8 19.87c1.1.49 2.18.99 3.26 1.51a47.555 47.555 0 0 1 18.7-12.83C54.6-.76 82.22 11.72 91.52 36.36c5.92 15.63 3.04 32.45-6.13 45.04z"/><circle cx="46.6" cy="53.27" r="43.62" fill="#2F2F2F"/><text transform="translate(4.248 123.446)"><tspan x="0" y="0" fill="#FFF" font-family="'SegoeUI'" font-size="13.725">Оформление </tspan><tspan x="-10.39" y="16.47" fill="#FFF" font-family="'SegoeUI'" font-size="13.725">европротокола</tspan></text><g fill="#FFF"><path d="M32.36 44.84c0-.69-.07-.79-.52-.79h-9.55c-.28 0-.4.18-.4.61v.73c0 .46.12.64.42.64H32c.22 0 .35-.19.36-.53v-.66zM36.97 40.09c.36.01.73 0 1.09 0 .83-.01 1.32-.5 1.32-1.32v-2.28c0-.79.01-1.58 0-2.37-.01-.73-.53-1.24-1.26-1.25H37c-.72 0-1.25.5-1.26 1.22-.01 1.6-.01 3.19 0 4.79.01.71.52 1.2 1.23 1.21zM24.36 40.09c.38.01.76.01 1.14 0 .81-.01 1.31-.5 1.31-1.31v-2.31h-.01c0-.82.02-1.64-.01-2.47-.02-.65-.54-1.13-1.19-1.14-.41 0-.82-.01-1.23 0-.65.01-1.18.52-1.19 1.17-.01 1.62-.01 3.24 0 4.86a1.2 1.2 0 0 0 1.18 1.2zM29.99 50.91c.03-.2.03-.4.03-.6 0-.28 0-.55-.03-.83-.03-.23-.13-.29-.4-.29h-7.26c-.31 0-.4.05-.43.31-.03.27-.03.55-.03.83 0 .2.01.4.04.6.03.17.14.27.38.27 1.21-.01 2.42 0 3.63 0h3.67c.28-.01.36-.06.4-.29zM26.7 54.35h-4.54c-.19 0-.25.05-.27.3-.02.27-.02.55-.02.83 0 .2.01.4.02.6.02.17.08.27.24.27.76-.01 1.51 0 2.27 0h2.3c.17 0 .22-.05.25-.27.02-.2.02-.4.02-.6 0-.28 0-.55-.02-.83-.01-.24-.08-.3-.25-.3zM27.97 37.68h6.56v-2.37c-.05-.01-.07-.02-.1-.02h-6.31c-.15 0-.17.08-.17.21v1.98c0 .06.01.12.02.2z"/><path d="M25.87 66.59H19.5c-.61 0-1.08-.38-1.2-.95-.03-.14-.02-.29-.02-.43V49.96 39c0-.8.49-1.29 1.3-1.29H21.89v-2.4c-.06 0-.1-.01-.15-.01h-4.7c-.13 0-.27.03-.4.07-.42.15-.64.49-.78.89v31.79c.22.64.64.97 1.34.97 4.44-.01 8.88 0 13.31 0-.01-.81-.01-1.61-.01-2.42-1.54-.01-3.09-.01-4.63-.01zM40.62 36.99c.71 0 1.42-.01 2.12 0 .85.01 1.23.39 1.23 1.24v2.7c.81-.09 1.62-.15 2.43-.17v-4.54a.8.8 0 0 0-.35-.68c-.28-.21-.6-.27-.95-.27h-4.31c-.45 0-.45 0-.45.46v1.25c.12.01.2.01.28.01zM73.72 52.22c-.02-.85-.37-1.58-.98-2.06s-1.39-.64-2.2-.46c-.44.09-.88.21-1.35.34l-.39-.96-1.23-3a5.493 5.493 0 0 0-5.11-3.46H43.55c-1.44 0-2.74.55-3.87 1.62-.73.7-1.07 1.53-1.39 2.33l-1.43 3.47-.57-.15c-.28-.08-.56-.15-.85-.21-.73-.14-1.44 0-2 .39-.53.37-.88.95-.99 1.62-.12.74-.12 1.54-.01 2.31.15 1.09.84 1.93 1.88 2.3-.61 1.72-.93 3.45-.94 5.15-.02 2.31-.01 4.61-.01 6.92v2.91c0 1.82 1.31 3.14 3.12 3.16H38.96c.96 0 1.78-.31 2.37-.9.58-.59.89-1.4.89-2.36v-1.34H63.85c-.01.51 0 1.03.01 1.54.04 1.76 1.35 3.05 3.11 3.06h2.41c1.06-.05 1.88-.35 2.43-.9.59-.59.9-1.43.9-2.44v-1.94c-.01-1.94-.01-3.88.01-5.82.02-1.92-.06-4.44-.93-6.89-.02-.05-.03-.09-.05-.14 1.22-.45 1.97-1.54 1.98-2.92v-.15c.01-.35.01-.69 0-1.02zm-1.92 1.13c-.01.73-.38 1.14-1.11 1.23l-1.56.24.55 1.45c.1.27.2.54.3.8.76 2.15.84 4.35.82 6.23-.02 2.03-.02 4.05-.01 6.08v1.71c0 .49-.11.85-.34 1.08-.22.22-.59.34-1.08.34h-2.38c-.73-.01-1.19-.46-1.21-1.18-.01-.56-.02-1.29 0-2.03.01-.16.02-.64-.35-1.02-.24-.25-.59-.38-1.03-.38-1.95.01-3.89.01-5.85.01H40.3v3.26c0 .44-.11.78-.33 1-.22.22-.57.34-1.01.34H36.51c-.76-.01-1.22-.47-1.22-1.24v-2.91c0-2.3-.01-4.6.01-6.91.01-1.64.36-3.33 1.02-5.01l.65-1.6-1.3-.22c-.11-.02-.21-.04-.31-.05-.34-.04-.91-.2-1-.85-.08-.58-.08-1.19.01-1.74a.48.48 0 0 1 .2-.35c.09-.07.21-.1.35-.1.06 0 .12.01.18.02.24.05.47.11.71.18l2.21.59 2.07-5.04c.26-.64.5-1.25.94-1.66.77-.73 1.6-1.09 2.54-1.09h18.91c1.49 0 2.77.87 3.33 2.26.42 1.05.85 2.09 1.28 3.13l.62 1.51c.02.05.05.11.12.22l.36.64 1.46-.39c.43-.12.87-.24 1.31-.33.26-.05.47-.02.62.09.15.12.24.33.24.6.01.31.01.62 0 .93l-.02.16z"/></g></svg>