<svg xmlns="http://www.w3.org/2000/svg" viewBox="0 0 98.31 97.6"><path fill="#B71828" d="M87.97 74.63c1.29.03 2.57.06 3.85.1 7.15-14.43 7.43-32.01-.82-47.21C77.53 2.69 46.37-6.56 21.54 6.91A50.886 50.886 0 0 0 2.96 24.15c1.15.33 2.3.68 3.44 1.05A47.557 47.557 0 0 1 23.19 9.95C46.35-2.6 75.4 6.02 87.96 29.17c7.96 14.69 7.39 31.74.01 45.46z"/><circle cx="45.48" cy="52.41" r="43.62" fill="#2F2F2F"/><text transform="translate(-11.355 119.451)"><tspan x="0" y="0" fill="#FFF" font-family="'SegoeUI'" font-size="13.725">Круглосуточная </tspan><tspan x="18.3" y="16.47" fill="#FFF" font-family="'SegoeUI'" font-size="13.725">поддержка</tspan></text><path fill="#FFF" d="M48.92 23.38l.05 2.71c.72 0 1.43.04 2.12.11.85.08 1.69.22 2.52.39a22.8 22.8 0 0 1 11.05 5.9l.06.06a23.002 23.002 0 0 1 3.18 3.86c2.32 3.56 3.64 7.75 3.73 12.04v.08a22.457 22.457 0 0 1-.48 5c-.84 4.01-2.74 7.77-5.54 10.81l1.91 1.84c4.5-4.82 7.14-11.38 6.82-18.49-.59-13.65-11.87-24.32-25.42-24.31zM51.4 52.46h-5.49l6.18-9.65c.36-.56.59-1.27.69-2.13.26-2.21.1-3.79-.46-4.75-.57-.96-1.9-1.45-3.98-1.45-3.38 0-5.22 1.31-5.53 3.94l-.42 3.55h4.03l.41-3.49c.07-.57.41-.85 1.03-.85.6 0 .85.46.74 1.37-.21 1.74-.64 3.12-1.31 4.12l-6.12 9.24-.32 2.72h10.24l.31-2.62z"/><path fill="#FFF" d="M64.4 34.66h-6.04l-6.15 14.9-.34 2.9h6.07l-.31 2.63H62l.31-2.63h2.22l.36-3.06h-2.22l1.73-14.74zm-6.11 14.73h-2.03l2.98-8.04-.95 8.04zM49.35 81.44c-.75 0-1.58-.25-2.5-.74-16.11-8.95-25.7-27.25-27.02-51.54.01-3.02 1.34-4.36 4.44-4.59l8.32-.75c1.16-.05 3.15.26 4.18 3.13l3 10.6c.6 3.07-.83 4.43-1.73 4.97l-4.08 2.35c.98 4.99 2.06 8.84 6.33 15.61.33-.21.65-.43.98-.64.79-.52 1.58-1.04 2.42-1.55.93-.55 2.81-1.17 5.12.74l.1.09 7.8 7.61c2.11 2.37 1.44 4.28.86 5.21l-4.68 7.03c-1.05 1.66-2.19 2.47-3.54 2.47zM32.89 27.1h-.06l-8.29.75c-1.09.08-1.3.28-1.3.28-.01.01-.11.18-.11.94 1.26 23.02 10.25 40.36 25.31 48.73.65.35.86.34.87.34 0 0 .28-.09.85-.99l4.66-7c.07-.11.23-.37-.47-1.16l-7.66-7.47c-.84-.68-1.15-.49-1.28-.42-.79.48-1.55.98-2.31 1.48-.79.52-1.58 1.04-2.43 1.56l-1.36.83-.88-1.34c-5.58-8.52-6.71-12.98-7.91-19.31l-.22-1.15 6.08-3.51c.11-.06.42-.26.21-1.37l-2.94-10.35c-.3-.77-.58-.84-.76-.84z"/></svg>