<svg xmlns="http://www.w3.org/2000/svg" viewBox="0 0 101.38 104.13"><path fill="#FFF" d="M43.69 99.49c.49 1.19.97 2.38 1.45 3.57 16.09.75 32.3-6.07 42.91-19.73 17.32-22.31 13.27-54.56-9.04-71.88A50.961 50.961 0 0 0 55.76 1.36c.16 1.19.3 2.38.42 3.57a47.524 47.524 0 0 1 20.71 9.25c20.8 16.15 24.59 46.22 8.43 67.03-10.25 13.2-26.1 19.53-41.63 18.28z"/><circle cx="46.66" cy="52.39" r="43.62" fill="#B71828"/><path fill="#FFF" d="M25.67 72.55l-.22-.66c-3.94-11.99-1.34-18.77 8.42-21.98 2.81-.92 5.89-1.39 8.87-1.84 2.52-.38 5.05-.77 7.01-1.33 3.41-.98 6.36-2.83 5.11-9.53l-5.43 1.32 5.26-17.87 12.85 13.49-4.69 1.14c2.93 13.5-4.23 17.42-10.83 19.33-2.66.77-5.36 1.18-7.97 1.57-2.73.41-5.49.83-7.61 1.53-3.12 1.03-5.94 3.21-3.17 11.65l.22.66-7.82 2.52zm30.26-37.04l.15.7c1.89 8.57-2.49 10.88-5.94 11.87-2.05.59-4.62.98-7.11 1.36-3 .45-6.02.91-8.71 1.8-6.23 2.04-11.98 5.98-7.75 19.56l5.15-1.67c-2.18-7.12-.85-11.06 4.27-12.74 2.23-.74 5.05-1.16 7.77-1.57 2.64-.4 5.29-.8 7.86-1.54 6.5-1.87 12.74-5.52 9.71-18.35l-.16-.68 3.69-.89-9.52-9.99-3.9 13.23 4.49-1.09z"/><path fill="#FFF" fill-rule="evenodd" d="M18.51 39.06l-.81 2.43c1.21.4 2.26.96 3.19 1.65-1.01 1.27-1.87 2.65-2.65 4.1l2.26 1.22c.69-1.28 1.43-2.48 2.29-3.58 1.06 1.18 1.94 2.56 2.71 4.05l2.27-1.19c-.91-1.75-1.96-3.38-3.26-4.79 1.17-1.12 2.55-2.09 4.19-2.87l-1.09-2.32c-1.97.92-3.6 2.09-5 3.46-1.18-.9-2.53-1.64-4.1-2.16z" clip-rule="evenodd"/><path fill="#FFF" d="M62.68 66.67c-1.74 0-3.38-.68-4.61-1.91-1.23-1.23-1.91-2.87-1.91-4.61s.68-3.38 1.91-4.61a6.483 6.483 0 0 1 4.61-1.91c1.74 0 3.38.68 4.62 1.91a6.483 6.483 0 0 1 1.91 4.61c0 1.75-.68 3.38-1.91 4.61a6.523 6.523 0 0 1-4.62 1.91zm0-11.03c-1.2 0-2.33.47-3.18 1.32-.85.85-1.32 1.98-1.32 3.18 0 1.2.47 2.33 1.32 3.18.85.85 1.98 1.32 3.18 1.32s2.33-.47 3.18-1.32c.85-.85 1.32-1.98 1.32-3.18 0-1.2-.47-2.33-1.32-3.18a4.471 4.471 0 0 0-3.18-1.32z"/><path fill="#FFF" fill-rule="evenodd" d="M49.56 61.17l-2.79-.49c-.24 1.38-.68 2.61-1.27 3.73-1.54-.89-3.18-1.6-4.89-2.22l-.95 2.65c1.49.54 2.92 1.16 4.26 1.91-1.11 1.34-2.47 2.52-3.96 3.6l1.66 2.29c1.76-1.28 3.36-2.68 4.68-4.32a16.96 16.96 0 0 1 3.79 4.09l2.36-1.56c-1.32-2-2.86-3.58-4.57-4.88a15.42 15.42 0 0 0 1.68-4.8z" clip-rule="evenodd"/><path fill="#FFF" d="M40.51 44.14a6.523 6.523 0 0 1-6.53-6.53c0-1.74.68-3.38 1.91-4.61a6.489 6.489 0 0 1 4.62-1.91c1.74 0 3.38.68 4.62 1.91a6.483 6.483 0 0 1 1.91 4.61 6.523 6.523 0 0 1-6.53 6.53zm0-11.03c-1.2 0-2.33.47-3.18 1.32-.85.85-1.32 1.98-1.32 3.18 0 1.2.47 2.33 1.32 3.18.85.85 1.98 1.32 3.18 1.32 1.2 0 2.33-.47 3.18-1.32.85-.85 1.32-1.98 1.32-3.18 0-1.2-.47-2.33-1.32-3.18a4.471 4.471 0 0 0-3.18-1.32z"/><text transform="translate(.987 127.467)"><tspan x="0" y="0" fill="#FFF" font-family="'SegoeUI'" font-size="13.725">Сбор справок </tspan><tspan x=".1" y="16.47" fill="#FFF" font-family="'SegoeUI'" font-size="13.725">(ГАИ или ОВД)</tspan></text></svg>