<svg xmlns="http://www.w3.org/2000/svg" viewBox="0 0 100.13 97.06"><path fill="#FFF" d="M88.34 77.33c1.28.12 2.56.26 3.84.39 8.21-13.86 9.8-31.37 2.72-47.15C83.32 4.8 52.94-6.75 27.17 4.82a50.757 50.757 0 0 0-19.82 15.8c1.12.42 2.24.85 3.35 1.31A47.45 47.45 0 0 1 28.59 7.99c24.03-10.8 52.35-.03 63.14 24 6.84 15.24 5 32.21-3.39 45.34z"/><circle cx="48.08" cy="51.13" r="43.62" fill="#B71828"/><text transform="translate(4.413 115.032)"><tspan x="0" y="0" fill="#FFF" font-family="'SegoeUI'" font-size="13.725">Подготовка </tspan><tspan x="-33.31" y="16.47" fill="#FFF" font-family="'SegoeUI'" font-size="13.725">документов для суда</tspan><tspan x="42.47" y="32.94" fill="#FFF" font-family="'SegoeUI'" font-size="13.725"></tspan></text><path fill="#FFF" fill-rule="evenodd" d="M18.05 31.04h27.54V68H25.21l-.41-.31-7.66-5.78-.62-.47V31.03h1.53v.01zm1.53 28.07l4.64-1.74.66-.25.19.69 2 7.11h15.49V34.13H19.58v24.98zm5.99 5.34L24 58.87l-3.89 1.45 5.46 4.13zm-2.16-13.51v1.29h15.55v-1.29H23.41zm0-3.86v1.29h15.55v-1.29H23.41zm0-4.2v1.29h15.55v-1.29H23.41zm0-3.86v1.29h15.55v-1.29H23.41z" clip-rule="evenodd"/><path fill="#FFF" fill-rule="evenodd" d="M40.59 66.03h4.55V61.7h24.49v4.34h4.97v7.85H40.59v-7.86zm13.9-11.71l1.46-5.45-.73-.2.31-1.17-1.07-.31.62-2.29 1.08.26.32-1.19.73.19 1.64-6.11-.73-.19.4-1.5 7.8 2.09-.4 1.5-.62-.17-1.64 6.11.63.17-.27.99 17.32 4.18-.96 3.6-17.09-5.04-.26.97-.62-.17-1.46 5.46.62.17-.4 1.5-7.8-2.09.4-1.5.72.19z" clip-rule="evenodd"/></svg>