<svg width="38" height="38" viewBox="0 0 38 38" fill="none" xmlns="http://www.w3.org/2000/svg">
<path d="M16.9339 14.1503V16.3305H15.3379V18.9953H16.9339V26.9167H20.2146V18.9953H22.4154C22.4154 18.9953 22.6228 17.7175 22.7226 16.3194H20.2272V14.4986C20.2272 14.2247 20.5851 13.8589 20.9397 13.8589H22.7257V11.0833H20.2953C16.8531 11.0833 16.9339 13.7513 16.9339 14.1503Z" fill="#3C3B3B"/>
<path d="M9.49984 6.33332C8.65999 6.33332 7.85453 6.66695 7.26067 7.26082C6.6668 7.85468 6.33317 8.66014 6.33317 9.49999V28.5C6.33317 29.3398 6.6668 30.1453 7.26067 30.7392C7.85453 31.333 8.65999 31.6667 9.49984 31.6667H28.4998C29.3397 31.6667 30.1451 31.333 30.739 30.7392C31.3329 30.1453 31.6665 29.3398 31.6665 28.5V9.49999C31.6665 8.66014 31.3329 7.85468 30.739 7.26082C30.1451 6.66695 29.3397 6.33332 28.4998 6.33332H9.49984ZM9.49984 3.16666H28.4998C30.1795 3.16666 31.7905 3.83392 32.9782 5.02165C34.1659 6.20938 34.8332 7.82029 34.8332 9.49999V28.5C34.8332 30.1797 34.1659 31.7906 32.9782 32.9783C31.7905 34.1661 30.1795 34.8333 28.4998 34.8333H9.49984C7.82013 34.8333 6.20923 34.1661 5.02149 32.9783C3.83376 31.7906 3.1665 30.1797 3.1665 28.5V9.49999C3.1665 7.82029 3.83376 6.20938 5.02149 5.02165C6.20923 3.83392 7.82013 3.16666 9.49984 3.16666Z" fill="#3C3B3B"/>
</svg>
