<svg width="40" height="40" viewBox="0 0 40 40" fill="none" xmlns="http://www.w3.org/2000/svg">
<path d="M20.0002 11.9883C15.5666 11.9883 11.9885 15.5664 11.9885 20C11.9885 24.4336 15.5666 28.0117 20.0002 28.0117C24.4338 28.0117 28.0119 24.4336 28.0119 20C28.0119 15.5664 24.4338 11.9883 20.0002 11.9883ZM20.0002 25.207C17.133 25.207 14.7932 22.8672 14.7932 20C14.7932 17.1328 17.133 14.7929 20.0002 14.7929C22.8674 14.7929 25.2072 17.1328 25.2072 20C25.2072 22.8672 22.8674 25.207 20.0002 25.207ZM28.34 9.79294C27.3049 9.79294 26.4689 10.6289 26.4689 11.664C26.4689 12.6992 27.3049 13.5351 28.34 13.5351C29.3752 13.5351 30.2111 12.7031 30.2111 11.664C30.2114 11.4182 30.1632 11.1748 30.0693 10.9476C29.9754 10.7205 29.8376 10.5141 29.6638 10.3403C29.49 10.1665 29.2836 10.0287 29.0564 9.93474C28.8293 9.84082 28.5858 9.79263 28.34 9.79294ZM35.6174 20C35.6174 17.8437 35.6369 15.707 35.5158 13.5547C35.3947 11.0547 34.8244 8.83591 32.9963 7.00778C31.1643 5.17575 28.9494 4.60935 26.4494 4.48825C24.2932 4.36716 22.1564 4.38669 20.0041 4.38669C17.8478 4.38669 15.7111 4.36716 13.5588 4.48825C11.0588 4.60935 8.84003 5.17966 7.0119 7.00778C5.17987 8.83982 4.61347 11.0547 4.49237 13.5547C4.37128 15.7109 4.39081 17.8476 4.39081 20C4.39081 22.1523 4.37128 24.2929 4.49237 26.4453C4.61347 28.9453 5.18378 31.164 7.0119 32.9922C8.84394 34.8242 11.0588 35.3906 13.5588 35.5117C15.715 35.6328 17.8517 35.6133 20.0041 35.6133C22.1603 35.6133 24.2971 35.6328 26.4494 35.5117C28.9494 35.3906 31.1682 34.8203 32.9963 32.9922C34.8283 31.1601 35.3947 28.9453 35.5158 26.4453C35.6408 24.2929 35.6174 22.1562 35.6174 20ZM32.1799 29.2109C31.8947 29.9218 31.551 30.4531 31.0002 31C30.4494 31.5508 29.9221 31.8945 29.2111 32.1797C27.1564 32.9961 22.2775 32.8125 20.0002 32.8125C17.7228 32.8125 12.84 32.9961 10.7853 32.1836C10.0744 31.8984 9.54315 31.5547 8.99628 31.0039C8.4455 30.4531 8.10175 29.9258 7.81659 29.2148C7.00409 27.1562 7.18769 22.2773 7.18769 20C7.18769 17.7226 7.00409 12.8398 7.81659 10.7851C8.10175 10.0742 8.4455 9.54294 8.99628 8.99607C9.54706 8.44919 10.0744 8.10153 10.7853 7.81638C12.84 7.00388 17.7228 7.18747 20.0002 7.18747C22.2775 7.18747 27.1603 7.00388 29.215 7.81638C29.926 8.10153 30.4572 8.44528 31.0041 8.99607C31.5549 9.54685 31.8986 10.0742 32.1838 10.7851C32.9963 12.8398 32.8127 17.7226 32.8127 20C32.8127 22.2773 32.9963 27.1562 32.1799 29.2109Z" fill="#3C3B3B"/>
</svg>
