<svg width="35" height="35" viewBox="0 0 35 35" fill="none" xmlns="http://www.w3.org/2000/svg">
<path d="M31.4692 9.99689C31.6734 9.31876 31.4692 8.82147 30.5038 8.82147H27.3057C26.4919 8.82147 26.12 9.25168 25.9159 9.72418C25.9159 9.72418 24.2898 13.6894 21.9857 16.2604C21.2419 17.0086 20.9021 17.2448 20.4967 17.2448C20.294 17.2448 19.9994 17.0086 19.9994 16.3304V9.99689C19.9994 9.18314 19.7646 8.82147 19.0865 8.82147H14.0611C13.5536 8.82147 13.2473 9.19772 13.2473 9.55647C13.2473 10.3265 14.3994 10.5044 14.5175 12.6744V17.3819C14.5175 18.4129 14.3323 18.6011 13.924 18.6011C12.8405 18.6011 10.2038 14.6213 8.639 10.0654C8.33421 9.18022 8.0265 8.82293 7.20984 8.82293H4.01317C3.0988 8.82293 2.9165 9.25314 2.9165 9.72564C2.9165 10.5744 4.00005 14.7744 7.9638 20.3292C10.6063 24.1223 14.3265 26.1786 17.7157 26.1786C19.7471 26.1786 19.998 25.7221 19.998 24.9346V22.0675C19.998 21.1546 20.1919 20.9708 20.835 20.9708C21.3075 20.9708 22.1213 21.21 24.0186 23.0373C26.1857 25.2044 26.5444 26.1771 27.7621 26.1771H30.9588C31.8717 26.1771 32.3282 25.7206 32.0657 24.8194C31.7784 23.9225 30.743 22.6173 29.3692 21.0729C28.6225 20.1921 27.5069 19.2442 27.1671 18.7702C26.6932 18.1592 26.8303 17.8894 27.1671 17.3469C27.1686 17.3483 31.0638 11.8621 31.4692 9.99689Z" fill="#3C3B3B"/>
</svg>
