<svg xmlns="http://www.w3.org/2000/svg" viewBox="0 0 692.32 768.83"><g fill="#3B3A3B"><path d="M512.93 329.6c-30.37 15.39-63.89 32.3-94.12 46.33h120.86l-26.74-46.33zM363.85 365.11l-6.17 10.82h51.35c4.03-36.04 8.32-74.38 12.36-110.48l-57.54 99.66zM448.64 218.26l-23.13 40.06c26.35 20.29 57.01 43.9 83.29 64.13l-60.16-104.19z"/><path d="M252.27 375.86l.16.47a196.97 196.97 0 0 0 8 20.35c3.06 6.68 6.45 13.13 10.14 19.32 19.09 31.99 46.94 58.54 80.25 75.81l.44.23c6.6 3.4 13.45 6.44 20.49 9.12 6.99 2.65 14.11 4.9 21.29 6.75 35.29 9.07 72.82 8.53 107.99-1.99l-18.19-55.58c-3.86 1.12-7.71 2.07-11.54 2.84-5.27 1.06-10.56 1.81-15.8 2.26-26.85 2.31-53.32-3.13-76.58-14.92l-.02-.01-.6-.31c-34.32-17.6-58.57-48.06-69.92-82.72-10.91-33.33-9.91-70.57 5.52-104.03l-52.2-26.43c-2.68 5.64-5.07 11.34-7.18 17.07-2.61 7.09-4.8 14.29-6.58 21.54-9.05 37.04-7.15 75.2 4.33 110.23z"/><path d="M13.08 288.95l-.08 1.01a407.116 407.116 0 0 0-.76 44.74c.57 15.02 1.95 29.87 4.11 44.46 11.15 75.42 43.1 147.4 92.64 206.06l.65.77c9.84 11.59 20.42 22.69 31.66 33.25a413.885 413.885 0 0 0 35.01 29.4c59.68 44.71 131.11 72.97 205.87 80.54l8.97-119.35c-8.18-.9-16.21-2.11-24.04-3.64a291.01 291.01 0 0 1-31.66-8.05c-52.6-16.58-98.43-47.55-133.24-88.01l-.03-.03-.89-1.04c-51.2-60.09-73.3-136.65-67.71-211.07 5.38-71.57 36.35-141.26 91.66-192.51l-78.12-90.76c-9.47 8.57-18.44 17.5-26.9 26.7a407.846 407.846 0 0 0-29.26 35.61C44.89 140.01 18.71 213.7 13.08 288.95zM385.69 120.65l18.19 55.58c35.39-10.16 72.34-5.49 103.62 10.34 32.53 16.47 58.96 45.05 71.16 81.62l.01.03.22.68.19.59.01.03c1.57 4.87 2.88 9.82 3.92 14.8 1.03 4.94 1.8 10.01 2.31 15.16 2.41 24.48-1.5 49.85-12.51 73.64l52.18 26.43c2.61-5.51 4.97-11.12 7.05-16.81 2.59-7.06 4.77-14.29 6.56-21.63 9.1-37.43 7.44-77.22-5.36-113.96l-.22-.62c-2.4-6.82-5.17-13.48-8.27-19.95-3.09-6.44-6.55-12.75-10.35-18.87-19.37-31.26-47.16-57.09-80.16-73.81l-.6-.3c-6.34-3.18-12.95-6.07-19.79-8.63-6.77-2.54-13.66-4.71-20.64-6.5-34.27-8.82-71.29-8.68-107.52 2.18z"/><path d="M554.8 104.69l-11.35 22.42a213.33 213.33 0 0 1 16.91 10.11c6.61 4.38 12.93 9.12 18.96 14.17 30.73 25.77 52.86 59.31 64.91 96.13l-.01.02.23.72.02.01c2.37 7.33 4.34 14.84 5.89 22.46 1.55 7.62 2.68 15.27 3.38 22.87 3.6 39.23-3.76 79.28-21.61 114.78l-.01.02-.33.65-.01.02c-3.56 7-7.48 13.74-11.73 20.2a211.59 211.59 0 0 1-13.83 18.7C582 477.16 550.07 499.69 514 512.5l7.64 23.34c57.74-19.98 107.72-62.23 135.95-121.79 54.28-114.5 8.18-250.75-102.79-309.36zM390.64 542.6l4.66-22.63c-8.75-2.02-17.26-4.58-25.49-7.64a211.72 211.72 0 0 1-28.47-13.1c-46.88-25.93-83.38-69.31-99.95-121.37l-.01-.04-.01-.03c-3.04-9.64-5.37-19.48-6.97-29.42-1.6-9.94-2.48-19.94-2.66-29.92-.9-51.34 16.78-102.6 50.79-142.15l.04-.05c1.98-2.31 3.82-4.37 5.48-6.16 1.68-1.8 3.6-3.77 5.74-5.9 8.79-8.73 18.36-16.7 28.56-23.77L309 120.16c-32.31 22.65-59.37 53.73-77.47 91.93-55.76 117.64-5.58 258.26 112.05 314.02a236.557 236.557 0 0 0 47.06 16.49z"/><ellipse cx="349.71" cy="110.75" fill-rule="evenodd" clip-rule="evenodd" rx="21.91" ry="21.91" transform="rotate(-19.644 349.673 110.772)"/><circle cx="373.08" cy="66.56" r="8.61" fill-rule="evenodd" clip-rule="evenodd"/><circle cx="455.93" cy="600.29" r="24.6" fill-rule="evenodd" clip-rule="evenodd"/><circle cx="560.18" cy="695.77" r="65.75" fill-rule="evenodd" clip-rule="evenodd"/></g></svg>