<?xml version="1.0" encoding="UTF-8"?>
<svg xmlns="http://www.w3.org/2000/svg" xmlns:xlink="http://www.w3.org/1999/xlink" width="100px" height="97px" viewBox="0 0 98 97" version="1.1">
<g id="surface1">
<path style=" stroke:none;fill-rule:nonzero;fill:rgb(100%,100%,100%);fill-opacity:1;" d="M 45.074219 94.085938 C 45.546875 95.238281 46.007812 96.390625 46.46875 97.542969 C 61.90625 98.269531 77.457031 91.664062 87.636719 78.429688 C 104.253906 56.820312 100.367188 25.582031 78.964844 8.804688 C 72.460938 3.695312 64.785156 0.335938 56.648438 -0.96875 C 56.800781 0.183594 56.933594 1.335938 57.050781 2.488281 C 64.292969 3.8125 71.109375 6.886719 76.917969 11.449219 C 96.875 27.09375 100.511719 56.21875 85.007812 76.378906 C 75.183594 89.152344 59.976562 95.285156 45.074219 94.085938 Z M 45.074219 94.085938 "/>
<path style=" stroke:none;fill-rule:nonzero;fill:rgb(71.764706%,9.411765%,15.686275%);fill-opacity:1;" d="M 89.390625 47.617188 C 89.390625 70.953125 70.65625 89.871094 47.542969 89.871094 C 24.429688 89.871094 5.691406 70.953125 5.691406 47.617188 C 5.691406 24.285156 24.429688 5.367188 47.542969 5.367188 C 70.65625 5.367188 89.390625 24.285156 89.390625 47.617188 Z M 89.390625 47.617188 "/>
<path style=" stroke:none;fill-rule:nonzero;fill:rgb(100%,100%,100%);fill-opacity:1;" d="M 43.578125 46.109375 L 40 46.109375 L 40 49.730469 L 43.578125 49.730469 Z M 40.011719 56.957031 L 43.589844 56.957031 L 43.589844 53.332031 L 40.011719 53.332031 Z M 47.15625 42.503906 L 50.726562 42.503906 L 50.726562 41.371094 L 47.15625 41.371094 Z M 43.597656 41.371094 L 40.011719 41.371094 L 40.011719 42.503906 L 43.597656 42.503906 Z M 32.84375 56.9375 L 36.429688 56.9375 L 36.429688 53.332031 L 32.84375 53.332031 Z M 25.714844 56.9375 L 29.273438 56.9375 L 29.273438 53.324219 L 25.714844 53.324219 Z M 29.285156 46.109375 L 25.722656 46.109375 L 25.722656 49.738281 L 29.285156 49.738281 Z M 36.429688 46.109375 L 32.851562 46.109375 L 32.851562 49.738281 L 36.429688 49.738281 Z M 36.429688 46.109375 "/>
<path style=" stroke:none;fill-rule:nonzero;fill:rgb(100%,100%,100%);fill-opacity:1;" d="M 25.351562 60.144531 C 24.035156 60.144531 23.335938 59.425781 23.335938 58.097656 L 23.335938 27.382812 C 23.335938 26.027344 24.035156 25.320312 25.367188 25.320312 L 51.082031 25.320312 C 52.414062 25.320312 53.117188 26.027344 53.117188 27.382812 L 53.117188 45.632812 L 54.285156 43.589844 L 54.285156 33.835938 C 54.285156 31.636719 54.296875 29.425781 54.285156 27.230469 C 54.277344 25.425781 53.03125 24.148438 51.265625 24.148438 C 42.570312 24.136719 33.890625 24.136719 25.195312 24.15625 C 24.734375 24.15625 24.226562 24.273438 23.816406 24.476562 C 22.652344 25.050781 22.164062 26.046875 22.175781 27.335938 C 22.183594 37.59375 22.175781 47.859375 22.175781 58.117188 C 22.175781 58.285156 22.175781 58.457031 22.191406 58.621094 C 22.269531 59.417969 22.605469 60.066406 23.199219 60.597656 C 23.652344 61.003906 24.207031 61.1875 24.773438 61.324219 L 44.136719 61.324219 L 44.808594 60.144531 Z M 25.351562 60.144531 "/>
<path style=" stroke:none;fill-rule:nonzero;fill:rgb(100%,100%,100%);fill-opacity:1;" d="M 51.042969 27.304688 L 25.398438 27.304688 C 24.679688 27.304688 24.503906 27.480469 24.503906 28.195312 L 24.503906 37.234375 C 24.503906 37.332031 24.496094 37.429688 24.503906 37.523438 C 24.542969 37.960938 24.734375 38.164062 25.167969 38.164062 C 26.710938 38.175781 28.257812 38.175781 29.8125 38.164062 C 29.945312 38.164062 30.097656 38.125 30.214844 38.058594 C 30.464844 37.914062 30.519531 37.652344 30.433594 37.390625 C 30.339844 37.078125 30.078125 36.984375 29.78125 36.984375 L 25.714844 36.984375 L 25.714844 28.507812 L 50.738281 28.507812 L 50.738281 36.984375 L 32.546875 36.984375 C 31.941406 36.984375 31.664062 37.175781 31.671875 37.59375 C 31.683594 37.988281 31.941406 38.164062 32.535156 38.164062 L 51.023438 38.164062 C 51.78125 38.164062 51.945312 38 51.945312 37.226562 L 51.945312 28.214844 C 51.945312 27.472656 51.773438 27.304688 51.042969 27.304688 Z M 51.253906 44.90625 L 46.648438 44.90625 C 46.179688 44.90625 45.976562 45.109375 45.957031 45.59375 C 45.949219 45.855469 45.957031 46.125 45.957031 46.386719 L 45.957031 57.285156 C 45.957031 57.578125 45.996094 57.769531 46.082031 57.90625 L 47.15625 56.035156 L 47.15625 46.109375 L 50.753906 46.109375 C 50.753906 46.699219 50.746094 47.261719 50.753906 47.832031 C 50.765625 48.199219 51.015625 48.453125 51.320312 48.460938 C 51.390625 48.460938 51.445312 48.453125 51.503906 48.433594 L 51.925781 47.6875 C 51.9375 46.96875 51.945312 46.261719 51.925781 45.546875 C 51.917969 45.121094 51.6875 44.90625 51.253906 44.90625 Z M 29.667969 52.121094 L 25.351562 52.121094 C 24.707031 52.121094 24.503906 52.324219 24.503906 52.964844 L 24.503906 57.363281 C 24.503906 57.953125 24.714844 58.15625 25.3125 58.167969 L 29.707031 58.167969 C 30.300781 58.167969 30.484375 57.984375 30.484375 57.390625 C 30.492188 55.902344 30.492188 54.417969 30.484375 52.925781 C 30.472656 52.308594 30.273438 52.121094 29.667969 52.121094 Z M 36.949219 52.121094 C 35.414062 52.113281 33.890625 52.113281 32.355469 52.121094 C 31.863281 52.121094 31.671875 52.34375 31.671875 52.847656 C 31.671875 54.371094 31.664062 55.890625 31.671875 57.421875 C 31.671875 57.945312 31.863281 58.136719 32.382812 58.148438 C 33.140625 58.15625 33.890625 58.148438 34.648438 58.148438 C 35.40625 58.148438 36.152344 58.15625 36.910156 58.148438 C 37.429688 58.136719 37.640625 57.933594 37.640625 57.421875 C 37.648438 55.902344 37.648438 54.378906 37.640625 52.847656 C 37.640625 52.363281 37.429688 52.121094 36.949219 52.121094 Z M 25.332031 50.941406 L 29.742188 50.941406 C 30.261719 50.941406 30.472656 50.738281 30.472656 50.222656 C 30.484375 48.695312 30.484375 47.152344 30.472656 45.625 C 30.472656 45.121094 30.261719 44.925781 29.761719 44.917969 C 29.003906 44.90625 28.257812 44.917969 27.5 44.917969 L 25.3125 44.917969 C 24.699219 44.917969 24.503906 45.109375 24.496094 45.75 L 24.496094 50.097656 C 24.503906 50.746094 24.699219 50.929688 25.332031 50.941406 Z M 32.390625 50.929688 L 36.921875 50.929688 C 37.398438 50.929688 37.640625 50.707031 37.648438 50.234375 C 37.660156 48.683594 37.660156 47.144531 37.648438 45.59375 C 37.648438 45.140625 37.410156 44.90625 36.949219 44.90625 L 32.355469 44.90625 C 31.894531 44.90625 31.683594 45.128906 31.683594 45.605469 C 31.671875 46.378906 31.683594 47.152344 31.683594 47.929688 L 31.683594 50.214844 C 31.671875 50.71875 31.882812 50.929688 32.390625 50.929688 Z M 44.777344 52.90625 C 44.777344 52.335938 44.585938 52.132812 44.039062 52.121094 C 42.542969 52.113281 41.046875 52.113281 39.550781 52.121094 C 39.03125 52.121094 38.8125 52.355469 38.8125 52.886719 L 38.8125 57.421875 C 38.8125 57.933594 39.023438 58.15625 39.53125 58.15625 C 41.046875 58.167969 42.570312 58.167969 44.085938 58.15625 C 44.585938 58.15625 44.777344 57.953125 44.777344 57.449219 C 44.789062 56.683594 44.777344 55.929688 44.777344 55.164062 Z M 39.53125 50.929688 L 44.058594 50.929688 C 44.566406 50.929688 44.777344 50.71875 44.777344 50.203125 L 44.777344 45.632812 C 44.777344 45.109375 44.578125 44.90625 44.070312 44.90625 L 39.539062 44.90625 C 39.039062 44.90625 38.8125 45.128906 38.8125 45.632812 C 38.800781 47.152344 38.800781 48.675781 38.8125 50.203125 C 38.800781 50.707031 39.03125 50.929688 39.53125 50.929688 Z M 51.9375 40.925781 C 51.925781 40.355469 51.734375 40.167969 51.167969 40.160156 C 50.429688 40.148438 49.679688 40.160156 48.941406 40.160156 C 48.183594 40.160156 47.4375 40.148438 46.679688 40.160156 C 46.167969 40.167969 45.976562 40.355469 45.96875 40.855469 C 45.957031 41.574219 45.957031 42.28125 45.96875 43 C 45.976562 43.492188 46.1875 43.714844 46.667969 43.714844 C 48.175781 43.722656 49.691406 43.722656 51.195312 43.714844 C 51.726562 43.714844 51.925781 43.492188 51.9375 42.960938 C 51.945312 42.28125 51.945312 41.601562 51.9375 40.925781 Z M 39.453125 43.714844 C 41.007812 43.722656 42.570312 43.722656 44.125 43.714844 C 44.578125 43.714844 44.769531 43.484375 44.769531 43.027344 C 44.777344 42.328125 44.769531 41.621094 44.769531 40.925781 C 44.769531 40.375 44.585938 40.179688 44.039062 40.179688 C 43.300781 40.167969 42.550781 40.179688 41.8125 40.179688 C 41.046875 40.179688 40.277344 40.167969 39.511719 40.179688 C 39.023438 40.179688 38.800781 40.390625 38.800781 40.886719 C 38.792969 41.601562 38.792969 42.308594 38.800781 43.027344 C 38.8125 43.464844 39.023438 43.714844 39.453125 43.714844 Z M 39.453125 43.714844 "/>
<path style=" stroke:none;fill-rule:nonzero;fill:rgb(100%,100%,100%);fill-opacity:1;" d="M 49.277344 34.289062 C 49.308594 33.765625 49.289062 33.253906 49.289062 32.730469 L 49.277344 32.730469 C 49.277344 32.1875 49.296875 31.644531 49.269531 31.101562 C 49.230469 30.453125 48.78125 29.988281 48.269531 30.019531 C 47.78125 30.039062 47.351562 30.511719 47.332031 31.113281 C 47.300781 32.179688 47.300781 33.242188 47.332031 34.300781 C 47.351562 34.96875 47.773438 35.402344 48.308594 35.402344 C 48.855469 35.402344 49.25 34.96875 49.277344 34.289062 Z M 44.566406 34.320312 C 44.597656 33.796875 44.578125 33.28125 44.578125 32.757812 L 44.566406 32.757812 C 44.566406 32.21875 44.585938 31.675781 44.558594 31.132812 C 44.519531 30.484375 44.070312 30.019531 43.558594 30.046875 C 43.070312 30.066406 42.640625 30.542969 42.621094 31.140625 C 42.589844 32.207031 42.589844 33.273438 42.621094 34.328125 C 42.640625 34.996094 43.0625 35.433594 43.597656 35.433594 C 44.144531 35.433594 44.539062 35.007812 44.566406 34.320312 Z M 40.625 34.320312 C 40.652344 33.796875 40.625 33.28125 40.625 32.757812 L 40.613281 32.757812 C 40.613281 32.21875 40.632812 31.675781 40.605469 31.132812 C 40.566406 30.484375 40.117188 30.019531 39.605469 30.046875 C 39.117188 30.066406 38.6875 30.542969 38.667969 31.140625 C 38.636719 32.207031 38.636719 33.273438 38.667969 34.328125 C 38.6875 34.996094 39.109375 35.433594 39.644531 35.433594 C 40.203125 35.433594 40.585938 35.007812 40.625 34.320312 Z M 59.066406 48.558594 L 59.765625 57.914062 L 62.105469 57.914062 L 62.804688 48.558594 L 62.84375 47.222656 L 59.027344 47.222656 Z M 60.933594 60.210938 C 60.160156 60.210938 59.449219 60.839844 59.449219 61.710938 C 59.449219 62.476562 59.984375 63.195312 60.964844 63.195312 C 61.828125 63.195312 62.433594 62.476562 62.433594 61.710938 C 62.421875 60.890625 61.710938 60.210938 60.933594 60.210938 Z M 60.933594 60.210938 "/>
<path style=" stroke:none;fill-rule:nonzero;fill:rgb(100%,100%,100%);fill-opacity:1;" d="M 76.429688 63.085938 L 63.304688 40.160156 C 63.066406 39.722656 62.710938 39.367188 62.289062 39.125 C 61.664062 38.753906 60.925781 38.660156 60.226562 38.851562 C 59.523438 39.046875 58.941406 39.5 58.574219 40.132812 L 55.765625 45.042969 L 54.59375 47.085938 L 53.414062 49.148438 L 52.992188 49.894531 L 48.644531 57.5 L 47.570312 59.367188 L 46.292969 61.605469 L 45.621094 62.789062 L 45.535156 62.933594 C 45.230469 63.386719 45.066406 63.921875 45.066406 64.472656 C 45.066406 65.992188 46.292969 67.234375 47.800781 67.234375 L 74.070312 67.234375 C 74.550781 67.234375 75.019531 67.109375 75.433594 66.867188 C 76.066406 66.496094 76.515625 65.90625 76.699219 65.191406 C 76.890625 64.464844 76.796875 63.726562 76.429688 63.085938 Z M 75.144531 64.761719 C 75.015625 65.261719 74.570312 65.605469 74.0625 65.605469 L 47.800781 65.605469 C 47.175781 65.605469 46.679688 65.09375 46.679688 64.472656 C 46.679688 64.242188 46.746094 64.027344 46.898438 63.785156 L 47.472656 62.777344 L 48.144531 61.597656 L 49.289062 59.601562 L 49.980469 58.398438 L 52.242188 54.449219 L 53.433594 52.375 L 54.601562 50.320312 L 55.773438 48.277344 L 59.976562 40.933594 C 60.121094 40.683594 60.359375 40.5 60.648438 40.421875 C 60.742188 40.390625 60.839844 40.382812 60.933594 40.382812 C 61.128906 40.382812 61.320312 40.429688 61.492188 40.539062 C 61.664062 40.632812 61.808594 40.789062 61.90625 40.964844 L 75.039062 63.902344 C 75.183594 64.164062 75.230469 64.464844 75.144531 64.761719 Z M 75.144531 64.761719 "/>
</g>
</svg>
