<svg xmlns="http://www.w3.org/2000/svg" viewBox="0 0 101.46 102.66"><path fill="#B71828" d="M94.14 29.5c.64-1.12 1.28-2.23 1.93-3.34-9.28-13.17-24.6-21.79-41.9-21.79-28.25 0-51.23 22.98-51.23 51.23 0 8.89 2.29 17.26 6.29 24.55.84-.85 1.7-1.69 2.56-2.52A47.492 47.492 0 0 1 6.4 55.6c0-26.34 21.43-47.77 47.77-47.77 16.71 0 31.43 8.64 39.97 21.67z"/><circle cx="54.9" cy="55.79" r="43.62" fill="#2F2F2F"/><path fill="#FFF" d="M35.19 73.78a3.998 3.998 0 0 1-1.18-2.84V38.38c0-1.1.45-2.11 1.18-2.84.6-.6 1.4-1.02 2.28-1.14v3.47h25.54v-3.42c.77.17 1.46.55 2 1.09.73.73 1.18 1.73 1.18 2.84v20.1h2.95v-20.1c0-1.92-.78-3.66-2.04-4.92a6.93 6.93 0 0 0-4.09-1.99V28.1H37.47v3.33c-1.7.13-3.23.88-4.36 2.02-1.26 1.26-2.04 3-2.04 4.92v32.57c0 1.92.78 3.66 2.04 4.92 1.26 1.26 3 2.05 4.92 2.05h16.42v-2.95H38.03c-1.1 0-2.11-.45-2.84-1.18z"/><path fill="#FFF" d="M44.56 50.58h16.53v1.68H44.56zM44.56 42.95h16.53v1.69H44.56zM44.56 66.51h9.89v1.68h-9.89zM44.74 58.89h9.89v1.68h-9.89zM43.12 56.52h-6.08v6.09h6.08v-6.09zm-1.47 4.61h-3.14V58h3.14v3.13zM43.12 40.79h-6.08v6.08h6.08v-6.08zm-1.47 4.61h-3.14v-3.14h3.14v3.14zM77.94 62.7a2.7 2.7 0 0 0-1.91-.79H60.58a2.7 2.7 0 0 0-2.7 2.7V79.7c0 .74.31 1.41.79 1.91.49.49 1.16.79 1.91.79h15.46a2.7 2.7 0 0 0 2.69-2.7V64.61c0-.75-.3-1.42-.79-1.91zm-3.34 5.63l-5.78 10.34c-.11.22-.28.42-.49.58-.75.55-1.81.4-2.36-.35l-4.5-6.09c-.56-.75-.4-1.81.35-2.37.75-.55 1.81-.4 2.37.35l2.95 3.99 4.52-8.09a1.7 1.7 0 0 1 2.3-.66c.8.46 1.1 1.49.64 2.3zM43.12 48.43h-6.08v6.08h6.08v-6.08zm-1.47 4.61h-3.14V49.9h3.14v3.14zM37.04 70.44h6.08v-6.08h-6.08v6.08zm1.47-4.61h3.14v3.14h-3.14v-3.14z"/><text transform="translate(-13.002 125.961)"><tspan x="0" y="0" fill="#FFF" font-family="'SegoeUI'" font-size="13.725">Проверка полиса </tspan><tspan x="24.35" y="16.47" fill="#FFF" font-family="'SegoeUI'" font-size="13.725">виновника</tspan><tspan x="62.07" y="32.94" fill="#FFF" font-family="'SegoeUI'" font-size="13.725"></tspan></text></svg>