<?xml version="1.0" encoding="UTF-8"?>
<svg xmlns="http://www.w3.org/2000/svg" xmlns:xlink="http://www.w3.org/1999/xlink" width="100px" height="97px" viewBox="0 0 95 97" version="1.1">
<g id="surface1">
<path style=" stroke:none;fill-rule:nonzero;fill:rgb(71.764706%,9.411765%,15.686275%);fill-opacity:1;" d="M 88.144531 28.035156 C 88.746094 26.984375 89.34375 25.945312 89.953125 24.902344 C 81.265625 12.558594 66.917969 4.476562 50.722656 4.476562 C 24.269531 4.476562 2.753906 26.019531 2.753906 52.503906 C 2.753906 60.835938 4.898438 68.683594 8.640625 75.519531 C 9.429688 74.722656 10.234375 73.933594 11.039062 73.15625 C 7.714844 66.78125 5.984375 59.695312 5.992188 52.503906 C 5.992188 27.808594 26.058594 7.71875 50.722656 7.71875 C 66.367188 7.71875 80.148438 15.820312 88.144531 28.035156 Z M 88.144531 28.035156 "/>
<path style=" stroke:none;fill-rule:nonzero;fill:rgb(18.431373%,18.431373%,18.431373%);fill-opacity:1;" d="M 92.246094 52.679688 C 92.246094 75.265625 73.960938 93.574219 51.40625 93.574219 C 28.847656 93.574219 10.5625 75.265625 10.5625 52.679688 C 10.5625 30.097656 28.847656 11.789062 51.40625 11.789062 C 73.960938 11.789062 92.246094 30.097656 92.246094 52.679688 Z M 92.246094 52.679688 "/>
<path style=" stroke:none;fill-rule:nonzero;fill:rgb(100%,100%,100%);fill-opacity:1;" d="M 32.949219 69.546875 C 32.242188 68.84375 31.84375 67.882812 31.84375 66.882812 L 31.84375 36.359375 C 31.84375 35.328125 32.265625 34.382812 32.949219 33.695312 C 33.511719 33.132812 34.261719 32.742188 35.085938 32.628906 L 35.085938 35.882812 L 59 35.882812 L 59 32.675781 C 59.71875 32.835938 60.363281 33.191406 60.871094 33.695312 C 61.554688 34.382812 61.976562 35.320312 61.976562 36.359375 L 61.976562 55.203125 L 64.738281 55.203125 L 64.738281 36.359375 C 64.738281 34.558594 64.007812 32.929688 62.828125 31.746094 C 61.796875 30.710938 60.449219 30.054688 59 29.882812 L 59 26.722656 L 35.085938 26.722656 L 35.085938 29.84375 C 33.492188 29.964844 32.058594 30.667969 31 31.738281 C 29.820312 32.917969 29.089844 34.550781 29.089844 36.351562 L 29.089844 66.882812 C 29.089844 68.683594 29.820312 70.316406 31 71.496094 C 32.183594 72.675781 33.8125 73.417969 35.609375 73.417969 L 50.984375 73.417969 L 50.984375 70.652344 L 35.609375 70.652344 C 34.578125 70.652344 33.632812 70.230469 32.949219 69.546875 Z M 32.949219 69.546875 "/>
<path style=" stroke:none;fill-rule:nonzero;fill:rgb(100%,100%,100%);fill-opacity:1;" d="M 41.722656 47.796875 L 57.199219 47.796875 L 57.199219 49.371094 L 41.722656 49.371094 Z M 41.722656 40.644531 L 57.199219 40.644531 L 57.199219 42.226562 L 41.722656 42.226562 Z M 41.722656 62.730469 L 50.984375 62.730469 L 50.984375 64.304688 L 41.722656 64.304688 Z M 41.890625 55.585938 L 51.152344 55.585938 L 51.152344 57.164062 L 41.890625 57.164062 Z M 40.375 53.367188 L 34.683594 53.367188 L 34.683594 59.074219 L 40.375 59.074219 Z M 39 57.6875 L 36.058594 57.6875 L 36.058594 54.753906 L 39 54.753906 Z M 40.375 38.617188 L 34.683594 38.617188 L 34.683594 44.320312 L 40.375 44.320312 Z M 39 42.941406 L 36.058594 42.941406 L 36.058594 39.996094 L 39 39.996094 Z M 72.976562 59.160156 C 72.503906 58.683594 71.859375 58.417969 71.1875 58.417969 L 56.722656 58.417969 C 55.328125 58.417969 54.195312 59.550781 54.195312 60.949219 L 54.195312 75.097656 C 54.195312 75.789062 54.484375 76.417969 54.933594 76.886719 C 55.394531 77.347656 56.019531 77.628906 56.722656 77.628906 L 71.199219 77.628906 C 72.589844 77.621094 73.71875 76.492188 73.71875 75.097656 L 73.71875 60.949219 C 73.71875 60.246094 73.4375 59.617188 72.976562 59.160156 Z M 69.851562 64.4375 L 64.4375 74.128906 C 64.335938 74.335938 64.175781 74.523438 63.980469 74.675781 C 63.277344 75.191406 62.285156 75.050781 61.769531 74.347656 L 57.554688 68.636719 C 57.03125 67.933594 57.183594 66.941406 57.882812 66.414062 C 58.585938 65.898438 59.578125 66.039062 60.101562 66.742188 L 62.863281 70.484375 L 67.097656 62.898438 C 67.523438 62.136719 68.484375 61.859375 69.25 62.28125 C 70 62.710938 70.28125 63.679688 69.851562 64.4375 Z M 40.375 45.78125 L 34.683594 45.78125 L 34.683594 51.480469 L 40.375 51.480469 Z M 39 50.101562 L 36.058594 50.101562 L 36.058594 47.160156 L 39 47.160156 Z M 34.683594 66.414062 L 40.375 66.414062 L 40.375 60.714844 L 34.683594 60.714844 Z M 36.058594 62.09375 L 39 62.09375 L 39 65.039062 L 36.058594 65.039062 Z M 36.058594 62.09375 "/>
</g>
</svg>
