<?xml version="1.0" encoding="UTF-8"?>
<svg xmlns="http://www.w3.org/2000/svg" xmlns:xlink="http://www.w3.org/1999/xlink" width="100px" height="97px" viewBox="0 0 95 97" version="1.1">
<g id="surface1">
<path style=" stroke:none;fill-rule:nonzero;fill:rgb(71.764706%,9.411765%,15.686275%);fill-opacity:1;" d="M 82.726562 79.097656 C 83.957031 79.292969 85.1875 79.496094 86.40625 79.699219 C 95.164062 66.777344 97.730469 49.929688 91.8125 34.246094 C 82.144531 8.632812 53.457031 -4.335938 27.851562 5.335938 C 20.066406 8.265625 13.152344 13.121094 7.75 19.453125 C 8.816406 19.925781 9.863281 20.410156 10.910156 20.914062 C 15.855469 15.367188 22.070312 11.101562 29.023438 8.476562 C 52.894531 -0.546875 79.652344 11.550781 88.664062 35.4375 C 94.398438 50.589844 91.609375 66.894531 82.726562 79.097656 Z M 82.726562 79.097656 "/>
<path style=" stroke:none;fill-rule:nonzero;fill:rgb(18.431373%,18.431373%,18.431373%);fill-opacity:1;" d="M 87.40625 51.828125 C 87.40625 75.183594 68.484375 94.117188 45.144531 94.117188 C 21.808594 94.117188 2.886719 75.183594 2.886719 51.828125 C 2.886719 28.476562 21.808594 9.542969 45.144531 9.542969 C 68.484375 9.542969 87.40625 28.476562 87.40625 51.828125 Z M 87.40625 51.828125 "/>
<path style=" stroke:none;fill-rule:nonzero;fill:rgb(100%,100%,100%);fill-opacity:1;" d="M 31.351562 43.65625 C 31.351562 42.988281 31.28125 42.890625 30.847656 42.890625 L 21.59375 42.890625 C 21.324219 42.890625 21.207031 43.066406 21.207031 43.484375 L 21.207031 44.191406 C 21.207031 44.636719 21.324219 44.8125 21.613281 44.8125 L 31 44.8125 C 31.214844 44.8125 31.339844 44.628906 31.351562 44.296875 Z M 35.816406 39.054688 C 36.164062 39.0625 36.523438 39.054688 36.871094 39.054688 C 37.675781 39.042969 38.152344 38.570312 38.152344 37.773438 L 38.152344 35.5625 C 38.152344 34.796875 38.160156 34.03125 38.152344 33.265625 C 38.140625 32.558594 37.636719 32.0625 36.929688 32.054688 L 35.84375 32.054688 C 35.148438 32.054688 34.632812 32.539062 34.625 33.238281 C 34.613281 34.789062 34.613281 36.328125 34.625 37.878906 C 34.632812 38.570312 35.128906 39.042969 35.816406 39.054688 Z M 23.601562 39.054688 C 23.96875 39.0625 24.335938 39.0625 24.703125 39.054688 C 25.488281 39.042969 25.972656 38.570312 25.972656 37.785156 L 25.972656 35.542969 L 25.964844 35.542969 C 25.964844 34.75 25.984375 33.953125 25.953125 33.148438 C 25.933594 32.519531 25.429688 32.054688 24.800781 32.042969 C 24.402344 32.042969 24.007812 32.035156 23.609375 32.042969 C 22.980469 32.054688 22.464844 32.546875 22.457031 33.179688 C 22.445312 34.75 22.445312 36.320312 22.457031 37.890625 C 22.457031 38.523438 22.964844 39.042969 23.601562 39.054688 Z M 29.054688 49.542969 C 29.082031 49.347656 29.082031 49.15625 29.082031 48.960938 C 29.082031 48.6875 29.082031 48.425781 29.054688 48.15625 C 29.023438 47.933594 28.929688 47.875 28.667969 47.875 L 21.632812 47.875 C 21.332031 47.875 21.246094 47.921875 21.214844 48.175781 C 21.1875 48.4375 21.1875 48.707031 21.1875 48.980469 C 21.1875 49.171875 21.195312 49.367188 21.226562 49.5625 C 21.253906 49.726562 21.363281 49.824219 21.59375 49.824219 C 22.765625 49.8125 23.9375 49.824219 25.109375 49.824219 L 28.667969 49.824219 C 28.9375 49.8125 29.015625 49.765625 29.054688 49.542969 Z M 25.867188 52.875 L 21.46875 52.875 C 21.285156 52.875 21.226562 52.925781 21.207031 53.167969 C 21.1875 53.429688 21.1875 53.699219 21.1875 53.972656 C 21.1875 54.167969 21.195312 54.359375 21.207031 54.554688 C 21.226562 54.71875 21.285156 54.816406 21.4375 54.816406 C 22.175781 54.804688 22.902344 54.816406 23.636719 54.816406 L 25.867188 54.816406 C 26.03125 54.816406 26.078125 54.765625 26.109375 54.554688 C 26.128906 54.359375 26.128906 54.167969 26.128906 53.972656 C 26.128906 53.699219 26.128906 53.4375 26.109375 53.167969 C 26.097656 52.933594 26.03125 52.875 25.867188 52.875 Z M 27.097656 36.71875 L 33.453125 36.71875 L 33.453125 34.417969 C 33.402344 34.410156 33.382812 34.398438 33.355469 34.398438 L 27.242188 34.398438 C 27.097656 34.398438 27.078125 34.476562 27.078125 34.605469 L 27.078125 36.523438 C 27.078125 36.582031 27.085938 36.640625 27.097656 36.71875 Z M 27.097656 36.71875 "/>
<path style=" stroke:none;fill-rule:nonzero;fill:rgb(100%,100%,100%);fill-opacity:1;" d="M 25.0625 64.742188 L 18.890625 64.742188 C 18.300781 64.742188 17.84375 64.375 17.730469 63.820312 C 17.699219 63.6875 17.710938 63.539062 17.710938 63.40625 L 17.710938 37.996094 C 17.710938 37.222656 18.183594 36.746094 18.96875 36.746094 L 21.207031 36.746094 L 21.207031 34.417969 C 21.148438 34.417969 21.109375 34.410156 21.0625 34.410156 L 16.507812 34.410156 C 16.382812 34.410156 16.246094 34.4375 16.121094 34.476562 C 15.714844 34.621094 15.5 34.953125 15.363281 35.339844 L 15.363281 66.15625 C 15.578125 66.777344 15.984375 67.097656 16.664062 67.097656 C 20.964844 67.089844 25.265625 67.097656 29.558594 67.097656 C 29.546875 66.3125 29.546875 65.539062 29.546875 64.753906 C 28.054688 64.742188 26.554688 64.742188 25.0625 64.742188 Z M 39.351562 36.046875 C 40.039062 36.046875 40.726562 36.039062 41.40625 36.046875 C 42.230469 36.058594 42.597656 36.425781 42.597656 37.25 L 42.597656 39.867188 C 43.382812 39.78125 44.167969 39.722656 44.953125 39.703125 L 44.953125 35.300781 C 44.957031 35.039062 44.832031 34.789062 44.613281 34.640625 C 44.339844 34.4375 44.03125 34.378906 43.691406 34.378906 L 39.515625 34.378906 C 39.082031 34.378906 39.082031 34.378906 39.082031 34.828125 L 39.082031 36.039062 C 39.199219 36.046875 39.273438 36.046875 39.351562 36.046875 Z M 71.417969 50.8125 C 71.398438 49.988281 71.0625 49.28125 70.46875 48.816406 C 69.878906 48.351562 69.125 48.195312 68.339844 48.367188 C 67.914062 48.457031 67.484375 48.574219 67.03125 48.699219 L 66.652344 47.769531 L 65.460938 44.859375 C 64.652344 42.832031 62.691406 41.503906 60.511719 41.503906 L 42.191406 41.503906 C 40.796875 41.503906 39.535156 42.039062 38.441406 43.074219 C 37.734375 43.753906 37.40625 44.558594 37.09375 45.335938 L 35.710938 48.699219 L 35.15625 48.554688 C 34.886719 48.476562 34.613281 48.40625 34.335938 48.351562 C 33.625 48.214844 32.9375 48.351562 32.398438 48.726562 C 31.882812 49.085938 31.542969 49.648438 31.4375 50.296875 C 31.320312 51.015625 31.320312 51.792969 31.425781 52.539062 C 31.574219 53.59375 32.242188 54.410156 33.25 54.765625 C 32.65625 56.433594 32.347656 58.113281 32.339844 59.757812 C 32.320312 62 32.328125 64.230469 32.328125 66.46875 L 32.328125 69.289062 C 32.328125 71.054688 33.597656 72.332031 35.351562 72.351562 L 37.746094 72.351562 C 38.675781 72.351562 39.46875 72.050781 40.039062 71.480469 C 40.601562 70.90625 40.902344 70.121094 40.902344 69.191406 L 40.902344 67.894531 L 61.859375 67.894531 C 61.847656 68.386719 61.859375 68.890625 61.867188 69.386719 C 61.90625 71.09375 63.175781 72.34375 64.878906 72.351562 L 67.214844 72.351562 C 68.242188 72.304688 69.035156 72.011719 69.570312 71.480469 C 70.140625 70.90625 70.441406 70.09375 70.441406 69.113281 L 70.441406 67.234375 C 70.429688 65.351562 70.429688 63.472656 70.449219 61.59375 C 70.46875 59.730469 70.394531 57.289062 69.550781 54.914062 C 69.53125 54.863281 69.519531 54.824219 69.5 54.777344 C 70.683594 54.339844 71.410156 53.285156 71.417969 51.945312 L 71.417969 51.800781 C 71.429688 51.460938 71.429688 51.132812 71.417969 50.8125 Z M 69.558594 51.90625 C 69.550781 52.613281 69.191406 53.011719 68.484375 53.101562 L 66.972656 53.332031 L 67.503906 54.738281 C 67.601562 55 67.699219 55.261719 67.796875 55.511719 C 68.53125 57.597656 68.609375 59.730469 68.589844 61.554688 C 68.570312 63.519531 68.570312 65.480469 68.582031 67.445312 L 68.582031 69.105469 C 68.582031 69.578125 68.472656 69.929688 68.25 70.152344 C 68.039062 70.363281 67.679688 70.480469 67.207031 70.480469 L 64.898438 70.480469 C 64.191406 70.472656 63.746094 70.035156 63.726562 69.335938 C 63.71875 68.792969 63.707031 68.085938 63.726562 67.371094 C 63.738281 67.214844 63.746094 66.75 63.386719 66.378906 C 63.15625 66.136719 62.816406 66.011719 62.390625 66.011719 C 60.5 66.023438 58.621094 66.023438 56.722656 66.023438 L 39.042969 66.023438 L 39.042969 69.183594 C 39.042969 69.609375 38.9375 69.9375 38.722656 70.152344 C 38.507812 70.363281 38.171875 70.480469 37.746094 70.480469 L 35.371094 70.480469 C 34.632812 70.472656 34.1875 70.027344 34.1875 69.277344 L 34.1875 66.457031 C 34.1875 64.230469 34.179688 62 34.199219 59.757812 C 34.207031 58.167969 34.546875 56.53125 35.1875 54.902344 L 35.816406 53.351562 L 34.558594 53.136719 C 34.449219 53.121094 34.351562 53.101562 34.257812 53.089844 C 33.925781 53.050781 33.375 52.894531 33.289062 52.265625 C 33.210938 51.703125 33.210938 51.113281 33.296875 50.578125 C 33.308594 50.441406 33.378906 50.320312 33.492188 50.238281 C 33.578125 50.171875 33.695312 50.144531 33.832031 50.144531 C 33.886719 50.144531 33.945312 50.152344 34.003906 50.164062 C 34.238281 50.210938 34.460938 50.269531 34.691406 50.335938 L 36.832031 50.910156 L 38.839844 46.023438 C 39.089844 45.402344 39.324219 44.8125 39.75 44.414062 C 40.496094 43.707031 41.300781 43.355469 42.210938 43.355469 L 60.53125 43.355469 C 61.972656 43.355469 63.214844 44.199219 63.757812 45.546875 C 64.164062 46.566406 64.578125 47.574219 64.996094 48.582031 L 65.597656 50.046875 C 65.617188 50.09375 65.644531 50.152344 65.714844 50.257812 L 66.0625 50.878906 L 67.476562 50.5 C 67.894531 50.386719 68.320312 50.269531 68.746094 50.183594 C 68.996094 50.132812 69.199219 50.164062 69.347656 50.269531 C 69.492188 50.386719 69.578125 50.589844 69.578125 50.851562 C 69.589844 51.152344 69.589844 51.453125 69.578125 51.753906 Z M 69.558594 51.90625 "/>
</g>
</svg>
