<svg xmlns="http://www.w3.org/2000/svg" viewBox="0 0 100.26 99.3"><circle cx="54.1" cy="53.26" r="43.62" fill="#2F2F2F"/><path fill="#B71828" d="M94.06 27.16c.64-1.12 1.28-2.23 1.93-3.34C86.71 10.65 71.39 2.03 54.1 2.03c-28.25 0-51.23 22.98-51.23 51.23 0 8.89 2.29 17.26 6.29 24.55.84-.85 1.7-1.69 2.56-2.52a47.522 47.522 0 0 1-5.39-22.03c0-26.34 21.43-47.77 47.77-47.77 16.71 0 31.42 8.63 39.96 21.67z"/><text transform="translate(-26.533 121.18)"><tspan x="0" y="0" fill="#FFF" font-family="'SegoeUI'" font-size="13.725">Помощь на месте </tspan><tspan x="56.6" y="16.47" fill="#FFF" font-family="'SegoeUI'" font-size="13.725">ДТП</tspan></text><path fill="#FFF" d="M81.15 48.76c-.18-.24-.23-.42-.12-.72.66-1.75.37-3.34-.86-4.76-.04-.05-.07-.12-.11-.18l-3.86-2.96c-.23-.09-.47-.19-.7-.28-1.81-.66-3.87-.11-5.08 1.39-.64.8-1.44 1.16-2.45 1.07-.82-.07-1.64-.12-2.46-.17-1.68-.1-3.05.51-4.08 1.85-2.61 3.4-5.21 6.81-7.83 10.21-.7.91-1.03 1.92-1.03 3.05.6-.17 1.21-.23 1.82-.24.04-.59.21-1.13.58-1.61 2.63-3.44 5.27-6.88 7.91-10.32.64-.83 1.48-1.2 2.53-1.12.74.05 1.48.08 2.21.15 1.71.17 3.1-.37 4.21-1.71.99-1.2 2.56-1.34 3.82-.41.71.52 1.4 1.06 2.1 1.61.38.3.77.59 1.11.93.7.72.9 1.95.48 2.71-2.15-.73-4.07-.37-5.45 1.47-1.41 1.88-1.21 3.84.15 5.72-3.72 4.85-7.43 9.69-11.14 14.54-2.49-.75-4.28-.32-5.59 1.33-1.26 1.59-1.25 3.48.04 5.69-.2.16-.41.28-.64.37.05.15.09.31.14.46.01.28.04.56.03.84-.01.19-.02.38-.05.57.59-.14 1.16-.42 1.71-.84.21-.16.37-.21.64-.11 1.94.78 4.07.2 5.32-1.41 1.25-1.61 1.26-3.81.03-5.51-.06-.08-.11-.16-.19-.28.09-.12.18-.24.28-.36 3.53-4.61 7.07-9.22 10.59-13.83.2-.26.35-.34.69-.21 1.87.73 4.01.1 5.22-1.5a4.515 4.515 0 0 0 .03-5.43zM63.07 74.77c-.9 1.18-2.62 1.41-3.8.52a2.71 2.71 0 0 1-.53-3.82 2.71 2.71 0 0 1 3.82-.53c1.19.91 1.42 2.65.51 3.83zM79.68 53.1c-.89 1.19-2.64 1.43-3.83.52a2.716 2.716 0 0 1-.5-3.83 2.72 2.72 0 0 1 3.79-.53c1.2.92 1.44 2.64.54 3.84z"/><path fill="#FFF" d="M55.27 80.28l.34-.34c.21-.21.42-.42.63-.62.34-.58.75-1.14 1.02-1.75.59-1.32.79-2.65.39-3.93-.14-.45-.35-.9-.65-1.34-.07-.1-.14-.19-.22-.29-.4-.52-.88-.98-1.35-1.45-.53-.53-.81-1.13-.89-1.88-.3-2.89-.62-5.79-.93-8.68-.12-1.19-.59-2.2-1.44-3.05-3.03-3.04-6.05-6.08-9.07-9.13-1.19-1.2-2.63-1.63-4.28-1.31-.81.15-1.62.31-2.42.48-1 .22-1.83-.04-2.57-.75-1.39-1.33-3.5-1.62-5.21-.73l-.66.36-3.45 3.42c-.03.06-.05.13-.08.19-1.03 1.56-1.12 3.18-.24 4.83.15.28.12.47-.02.73-.99 1.75-.69 3.96.71 5.39 1.4 1.43 3.61 1.78 5.37.82.32-.18.48-.12.71.12 4.09 4.13 8.18 8.25 12.27 12.37.11.11.22.22.32.33-.06.12-.1.21-.15.3-1 1.84-.71 4.02.73 5.46 1.44 1.44 3.63 1.74 5.45.72.25-.14.42-.11.65.03 1.24.72 2.51.83 3.79.35.17-.07.35-.14.52-.23.25-.12.49-.28.73-.42zM30.04 59.2c-1.07 1.05-2.83 1.04-3.87-.03a2.753 2.753 0 0 1 .05-3.87c1.06-1.04 2.77-1.02 3.83.04a2.722 2.722 0 0 1-.01 3.86zm19.21 19.37a2.753 2.753 0 0 1-3.84-.03c-1.06-1.06-1.04-2.81.02-3.87a2.722 2.722 0 0 1 3.86.04 2.722 2.722 0 0 1-.04 3.86zm1.99.46c1-2.35.77-4.23-.68-5.65-1.5-1.47-3.33-1.67-5.71-.6-4.3-4.33-8.6-8.66-12.91-12.99 1.11-2.04 1.06-4.01-.58-5.69-1.61-1.65-3.56-1.76-5.6-.77-.51-.7-.47-1.95.13-2.75.29-.38.64-.72.98-1.06.62-.63 1.24-1.25 1.88-1.86 1.13-1.08 2.7-1.15 3.84-.08 1.28 1.19 2.72 1.55 4.4 1.16.72-.17 1.45-.28 2.17-.43 1.03-.21 1.92.05 2.65.79 3.06 3.07 6.11 6.15 9.16 9.22.52.53.77 1.17.84 1.9.3 2.88.63 5.76.92 8.64.12 1.2.59 2.2 1.46 3.04.32.31.62.62.93.94.03.04.06.07.1.11.48.53.75 1.13.81 1.79.02.27.01.55-.03.84-.17 1.02-.59 1.9-1.24 2.64-.23.25-.48.49-.77.71-.26.2-.55.33-.85.4-.64.15-1.32.05-1.9-.3z"/><g fill="#FFF"><path d="M60.39 30.22l-.51 2.51 7.73-4.32-2.81 8.57 1.84.61L71 24.3zM30.94 28.27l5.43 15.7 1.83-.64-4.04-11.66 10.71 4.36-1.67-2.77zM51.55 28.94l-5.14 8.64.84 2.37 4.85-8.16 6.97 5.33.17-2.31z"/></g></svg>