<?xml version="1.0" encoding="UTF-8"?>
<svg xmlns="http://www.w3.org/2000/svg" xmlns:xlink="http://www.w3.org/1999/xlink" width="100px" height="97px" viewBox="0 0 97 97" version="1.1">
<g id="surface1">
<path style=" stroke:none;fill-rule:nonzero;fill:rgb(18.431373%,18.431373%,18.431373%);fill-opacity:1;" d="M 94.523438 52.027344 C 94.523438 75.558594 75.636719 94.636719 52.339844 94.636719 C 29.042969 94.636719 10.15625 75.558594 10.15625 52.027344 C 10.15625 28.492188 29.042969 9.417969 52.339844 9.417969 C 75.636719 9.417969 94.523438 28.492188 94.523438 52.027344 Z M 94.523438 52.027344 "/>
<path style=" stroke:none;fill-rule:nonzero;fill:rgb(71.764706%,9.411765%,15.686275%);fill-opacity:1;" d="M 90.984375 26.53125 C 91.601562 25.4375 92.222656 24.351562 92.851562 23.269531 C 83.875 10.402344 69.058594 1.984375 52.339844 1.984375 C 25.019531 1.984375 2.796875 24.429688 2.796875 52.027344 C 2.796875 60.710938 5.011719 68.886719 8.878906 76.007812 C 9.691406 75.175781 10.523438 74.355469 11.355469 73.546875 C 7.921875 66.902344 6.136719 59.519531 6.140625 52.027344 C 6.140625 26.296875 26.867188 5.363281 52.339844 5.363281 C 68.5 5.363281 82.722656 13.792969 90.984375 26.53125 Z M 90.984375 26.53125 "/>
<path style=" stroke:none;fill-rule:nonzero;fill:rgb(100%,100%,100%);fill-opacity:1;" d="M 78.5 47.628906 C 78.324219 47.394531 78.277344 47.21875 78.382812 46.925781 C 79.019531 45.21875 78.742188 43.664062 77.550781 42.277344 C 77.511719 42.230469 77.484375 42.160156 77.445312 42.101562 L 73.710938 39.210938 C 73.488281 39.121094 73.257812 39.023438 73.035156 38.9375 C 71.285156 38.292969 69.292969 38.828125 68.121094 40.292969 C 67.503906 41.074219 66.730469 41.425781 65.753906 41.339844 C 64.960938 41.269531 64.167969 41.222656 63.375 41.171875 C 61.75 41.074219 60.425781 41.671875 59.429688 42.980469 C 56.902344 46.300781 54.390625 49.632812 51.855469 52.953125 C 51.179688 53.84375 50.859375 54.828125 50.859375 55.933594 C 51.441406 55.769531 52.03125 55.710938 52.621094 55.699219 C 52.660156 55.121094 52.824219 54.59375 53.179688 54.125 C 55.722656 50.765625 58.277344 47.40625 60.832031 44.046875 C 61.449219 43.234375 62.261719 42.875 63.277344 42.953125 C 63.992188 43 64.707031 43.03125 65.414062 43.097656 C 67.066406 43.265625 68.410156 42.738281 69.484375 41.425781 C 70.441406 40.253906 71.960938 40.117188 73.179688 41.027344 C 73.867188 41.535156 74.535156 42.0625 75.210938 42.601562 C 75.578125 42.894531 75.957031 43.175781 76.285156 43.507812 C 76.960938 44.210938 77.152344 45.414062 76.75 46.15625 C 74.667969 45.441406 72.8125 45.792969 71.476562 47.589844 C 70.113281 49.429688 70.308594 51.34375 71.621094 53.179688 C 68.023438 57.917969 64.4375 62.644531 60.847656 67.382812 C 58.441406 66.648438 56.710938 67.070312 55.445312 68.679688 C 54.226562 70.234375 54.234375 72.082031 55.480469 74.238281 C 55.289062 74.394531 55.085938 74.511719 54.863281 74.601562 C 54.910156 74.746094 54.949219 74.902344 55 75.050781 C 55.007812 75.324219 55.039062 75.597656 55.027344 75.871094 C 55.019531 76.054688 55.007812 76.242188 54.980469 76.429688 C 55.550781 76.292969 56.101562 76.015625 56.632812 75.605469 C 56.835938 75.449219 56.992188 75.402344 57.253906 75.5 C 59.128906 76.261719 61.1875 75.695312 62.398438 74.121094 C 63.605469 72.550781 63.617188 70.402344 62.425781 68.738281 C 62.367188 68.660156 62.320312 68.582031 62.242188 68.464844 C 62.328125 68.347656 62.417969 68.230469 62.511719 68.113281 C 65.925781 63.613281 69.351562 59.109375 72.753906 54.605469 C 72.949219 54.351562 73.09375 54.273438 73.421875 54.398438 C 75.230469 55.113281 77.300781 54.496094 78.46875 52.933594 C 79.648438 51.371094 79.660156 49.207031 78.5 47.628906 Z M 61.015625 73.039062 C 60.144531 74.191406 58.480469 74.414062 57.339844 73.546875 C 56.777344 73.121094 56.40625 72.488281 56.3125 71.789062 C 56.214844 71.085938 56.398438 70.375 56.828125 69.816406 C 57.246094 69.246094 57.871094 68.875 58.566406 68.777344 C 59.261719 68.679688 59.964844 68.867188 60.519531 69.296875 C 61.671875 70.1875 61.894531 71.886719 61.015625 73.039062 Z M 77.078125 51.871094 C 76.214844 53.03125 74.523438 53.265625 73.371094 52.378906 C 72.8125 51.949219 72.449219 51.3125 72.359375 50.609375 C 72.265625 49.90625 72.457031 49.195312 72.890625 48.636719 C 73.765625 47.476562 75.398438 47.246094 76.554688 48.117188 C 77.714844 49.019531 77.949219 50.699219 77.078125 51.871094 Z M 77.078125 51.871094 "/>
<path style=" stroke:none;fill-rule:nonzero;fill:rgb(100%,100%,100%);fill-opacity:1;" d="M 53.472656 78.421875 L 53.800781 78.089844 C 54.003906 77.882812 54.207031 77.679688 54.410156 77.484375 C 54.738281 76.917969 55.132812 76.371094 55.394531 75.773438 C 55.964844 74.484375 56.160156 73.183594 55.773438 71.933594 C 55.636719 71.496094 55.433594 71.054688 55.144531 70.625 C 55.074219 70.527344 55.007812 70.441406 54.929688 70.34375 C 54.542969 69.835938 54.078125 69.386719 53.625 68.925781 C 53.113281 68.40625 52.84375 67.820312 52.765625 67.089844 C 52.476562 64.265625 52.164062 61.433594 51.867188 58.609375 C 51.75 57.449219 51.292969 56.460938 50.472656 55.632812 C 47.542969 52.660156 44.621094 49.691406 41.703125 46.710938 C 40.550781 45.539062 39.15625 45.121094 37.5625 45.433594 C 36.777344 45.578125 35.996094 45.734375 35.222656 45.902344 C 34.253906 46.117188 33.453125 45.863281 32.738281 45.167969 C 31.390625 43.871094 29.351562 43.585938 27.699219 44.457031 L 27.058594 44.808594 L 23.722656 48.148438 C 23.695312 48.207031 23.675781 48.273438 23.644531 48.332031 C 22.648438 49.859375 22.5625 51.441406 23.414062 53.050781 C 23.558594 53.324219 23.53125 53.511719 23.394531 53.765625 C 22.4375 55.476562 22.726562 57.632812 24.082031 59.03125 C 25.433594 60.425781 27.574219 60.769531 29.273438 59.832031 C 29.585938 59.65625 29.738281 59.714844 29.960938 59.949219 C 33.917969 63.984375 37.871094 68.007812 41.828125 72.03125 C 41.933594 72.140625 42.039062 72.246094 42.136719 72.355469 C 42.078125 72.472656 42.039062 72.558594 41.992188 72.648438 C 41.023438 74.445312 41.304688 76.574219 42.699219 77.980469 C 44.089844 79.386719 46.207031 79.679688 47.96875 78.683594 C 48.210938 78.546875 48.375 78.578125 48.597656 78.714844 C 49.796875 79.417969 51.023438 79.523438 52.261719 79.054688 C 52.425781 78.988281 52.601562 78.917969 52.765625 78.832031 C 53.007812 78.714844 53.238281 78.558594 53.472656 78.421875 Z M 29.070312 57.828125 C 28.035156 58.855469 26.335938 58.84375 25.328125 57.800781 C 24.316406 56.738281 24.339844 55.054688 25.378906 54.019531 C 26.402344 53.003906 28.054688 53.023438 29.082031 54.058594 C 29.578125 54.558594 29.855469 55.238281 29.851562 55.945312 C 29.851562 56.652344 29.570312 57.332031 29.070312 57.828125 Z M 47.648438 76.75 C 46.609375 77.757812 44.960938 77.746094 43.933594 76.722656 C 42.910156 75.683594 42.929688 73.976562 43.953125 72.941406 C 44.453125 72.445312 45.128906 72.167969 45.828125 72.175781 C 46.53125 72.183594 47.199219 72.472656 47.6875 72.980469 C 48.179688 73.484375 48.453125 74.164062 48.445312 74.871094 C 48.4375 75.582031 48.152344 76.257812 47.648438 76.75 Z M 49.574219 77.199219 C 50.539062 74.902344 50.316406 73.066406 48.914062 71.679688 C 47.464844 70.246094 45.695312 70.050781 43.394531 71.09375 C 39.234375 66.863281 35.078125 62.636719 30.910156 58.40625 C 31.984375 56.414062 31.933594 54.488281 30.347656 52.847656 C 28.792969 51.234375 26.90625 51.128906 24.933594 52.09375 C 24.4375 51.410156 24.476562 50.191406 25.058594 49.410156 C 25.339844 49.039062 25.675781 48.707031 26.007812 48.371094 C 26.605469 47.757812 27.207031 47.152344 27.824219 46.554688 C 28.917969 45.5 30.433594 45.433594 31.539062 46.476562 C 32.777344 47.640625 34.167969 47.992188 35.792969 47.609375 C 36.488281 47.445312 37.195312 47.335938 37.890625 47.191406 C 38.886719 46.984375 39.746094 47.238281 40.453125 47.960938 C 43.414062 50.960938 46.363281 53.96875 49.3125 56.96875 C 49.816406 57.488281 50.058594 58.113281 50.125 58.824219 C 50.414062 61.636719 50.734375 64.453125 51.015625 67.265625 C 51.128906 68.4375 51.585938 69.414062 52.425781 70.234375 C 52.734375 70.539062 53.027344 70.839844 53.324219 71.152344 C 53.355469 71.191406 53.382812 71.222656 53.421875 71.261719 C 53.886719 71.777344 54.148438 72.363281 54.207031 73.007812 C 54.226562 73.273438 54.214844 73.546875 54.175781 73.828125 C 54.011719 74.824219 53.605469 75.683594 52.976562 76.410156 C 52.753906 76.652344 52.511719 76.886719 52.234375 77.101562 C 51.980469 77.296875 51.699219 77.425781 51.410156 77.492188 C 50.792969 77.640625 50.132812 77.542969 49.574219 77.199219 Z M 49.574219 77.199219 "/>
<path style=" stroke:none;fill-rule:nonzero;fill:rgb(100%,100%,100%);fill-opacity:1;" d="M 58.421875 29.519531 L 57.929688 31.972656 L 65.40625 27.753906 L 62.6875 36.125 L 64.464844 36.71875 L 68.683594 23.738281 Z M 29.941406 27.613281 L 35.191406 42.953125 L 36.960938 42.328125 L 33.054688 30.9375 L 43.414062 35.195312 L 41.796875 32.488281 Z M 49.875 28.269531 L 44.902344 36.710938 L 45.714844 39.023438 L 50.40625 31.054688 L 57.144531 36.261719 L 57.308594 34.003906 Z M 49.875 28.269531 "/>
</g>
</svg>
