<?xml version="1.0" encoding="UTF-8"?>
<svg xmlns="http://www.w3.org/2000/svg" xmlns:xlink="http://www.w3.org/1999/xlink" width="100px" height="97px" viewBox="0 0 97 97" version="1.1">
<g id="surface1">
<path style=" stroke:none;fill-rule:nonzero;fill:rgb(71.764706%,9.411765%,15.686275%);fill-opacity:1;" d="M 86.796875 73.984375 C 88.070312 74.015625 89.332031 74.046875 90.597656 74.085938 C 97.652344 59.847656 97.925781 42.5 89.789062 27.503906 C 76.496094 3.003906 45.753906 -6.121094 21.253906 7.167969 C 13.804688 11.203125 7.5 17.054688 2.921875 24.179688 C 4.054688 24.503906 5.191406 24.847656 6.316406 25.214844 C 10.542969 18.9375 16.226562 13.773438 22.882812 10.167969 C 45.730469 -2.214844 74.394531 6.289062 86.789062 29.132812 C 94.640625 43.625 94.078125 60.449219 86.796875 73.984375 Z M 86.796875 73.984375 "/>
<path style=" stroke:none;fill-rule:nonzero;fill:rgb(18.431373%,18.431373%,18.431373%);fill-opacity:1;" d="M 87.914062 52.0625 C 87.914062 75.832031 68.644531 95.101562 44.875 95.101562 C 21.105469 95.101562 1.835938 75.832031 1.835938 52.0625 C 1.835938 28.292969 21.105469 9.023438 44.875 9.023438 C 68.644531 9.023438 87.914062 28.292969 87.914062 52.0625 Z M 87.914062 52.0625 "/>
<path style=" stroke:none;fill-rule:nonzero;fill:rgb(100%,100%,100%);fill-opacity:1;" d="M 48.269531 23.417969 L 48.316406 26.09375 C 49.027344 26.09375 49.726562 26.132812 50.410156 26.199219 C 51.246094 26.28125 52.078125 26.417969 52.894531 26.585938 C 57.003906 27.46875 60.777344 29.488281 63.796875 32.40625 L 63.859375 32.464844 C 65.039062 33.617188 66.089844 34.894531 66.996094 36.273438 C 69.285156 39.789062 70.585938 43.921875 70.675781 48.15625 L 70.675781 48.234375 C 70.703125 49.890625 70.542969 51.546875 70.203125 53.167969 C 69.375 57.125 67.5 60.832031 64.734375 63.832031 L 66.621094 65.648438 C 71.058594 60.894531 73.664062 54.421875 73.347656 47.40625 C 72.765625 33.9375 61.636719 23.410156 48.269531 23.417969 Z M 50.714844 52.109375 L 45.296875 52.109375 L 51.394531 42.589844 C 51.75 42.039062 51.976562 41.335938 52.078125 40.488281 C 52.332031 38.308594 52.175781 36.75 51.621094 35.800781 C 51.058594 34.855469 49.75 34.371094 47.695312 34.371094 C 44.359375 34.371094 42.546875 35.664062 42.238281 38.257812 L 41.824219 41.761719 L 45.800781 41.761719 L 46.207031 38.316406 C 46.273438 37.753906 46.609375 37.480469 47.222656 37.480469 C 47.8125 37.480469 48.0625 37.933594 47.953125 38.832031 C 47.746094 40.546875 47.320312 41.910156 46.660156 42.894531 L 40.621094 52.011719 L 40.304688 54.695312 L 50.410156 54.695312 Z M 50.714844 52.109375 "/>
<path style=" stroke:none;fill-rule:nonzero;fill:rgb(100%,100%,100%);fill-opacity:1;" d="M 63.542969 34.546875 L 57.582031 34.546875 L 51.515625 49.25 L 51.179688 52.109375 L 57.167969 52.109375 L 56.863281 54.707031 L 61.175781 54.707031 L 61.480469 52.109375 L 63.671875 52.109375 L 64.023438 49.09375 L 61.835938 49.09375 Z M 57.511719 49.082031 L 55.511719 49.082031 L 58.449219 41.148438 Z M 48.691406 80.703125 C 47.953125 80.703125 47.132812 80.457031 46.226562 79.976562 C 30.332031 71.144531 20.867188 53.089844 19.566406 29.121094 C 19.574219 26.140625 20.886719 24.820312 23.945312 24.59375 L 32.15625 23.851562 C 33.300781 23.804688 35.265625 24.109375 36.28125 26.941406 L 39.238281 37.398438 C 39.832031 40.429688 38.421875 41.769531 37.53125 42.304688 L 33.507812 44.621094 C 34.472656 49.546875 35.539062 53.34375 39.753906 60.023438 C 40.078125 59.816406 40.394531 59.601562 40.71875 59.394531 C 41.5 58.878906 42.277344 58.367188 43.109375 57.863281 C 44.027344 57.320312 45.878906 56.710938 48.160156 58.59375 L 48.257812 58.683594 L 55.953125 66.191406 C 58.035156 68.53125 57.375 70.414062 56.804688 71.332031 L 52.183594 78.269531 C 51.148438 79.90625 50.023438 80.703125 48.691406 80.703125 Z M 32.453125 27.089844 L 32.390625 27.089844 L 24.214844 27.828125 C 23.136719 27.90625 22.929688 28.105469 22.929688 28.105469 C 22.921875 28.117188 22.820312 28.28125 22.820312 29.03125 C 24.066406 51.746094 32.933594 68.855469 47.792969 77.113281 C 48.4375 77.457031 48.644531 77.449219 48.652344 77.449219 C 48.652344 77.449219 48.929688 77.359375 49.492188 76.472656 L 54.089844 69.566406 C 54.160156 69.457031 54.316406 69.199219 53.625 68.421875 L 46.066406 61.050781 C 45.238281 60.378906 44.933594 60.566406 44.804688 60.636719 C 44.027344 61.109375 43.277344 61.601562 42.527344 62.097656 C 41.746094 62.609375 40.964844 63.121094 40.128906 63.636719 L 38.785156 64.453125 L 37.917969 63.132812 C 32.414062 54.726562 31.296875 50.324219 30.113281 44.078125 L 29.894531 42.945312 L 35.894531 39.480469 C 36.003906 39.421875 36.308594 39.226562 36.101562 38.128906 L 33.203125 27.917969 C 32.90625 27.160156 32.628906 27.089844 32.453125 27.089844 Z M 32.453125 27.089844 "/>
</g>
</svg>
