<svg xmlns="http://www.w3.org/2000/svg" viewBox="0 0 323.81 87.45"><g fill="#B71828"><path d="M75.89 56.22c-9.59 4.86-20.18 10.2-29.73 14.63h38.17l-8.44-14.63zM28.8 67.44l-1.95 3.42h16.22c1.27-11.38 2.63-23.49 3.9-34.9L28.8 67.44zM55.58 21.05L48.27 33.7c8.32 6.41 18.01 13.87 26.31 20.26l-19-32.91z"/></g><g fill="#FFF"><path d="M107.55 23.78c.74-1.65 1.69-3.06 4.63-3.06 2.56 0 3.72.99 4.63 3.06l9.71 21.85h2.44v4.34h-33.6v-4.34h2.44l9.75-21.85zm-4.18 21.85h17.56l-8.1-18.75c-.12-.25-.33-.91-.66-.91s-.62.66-.7.91l-8.1 18.75zM141.03 49.97c-1.24 0-2.35 0-3.3-.91-.99-.95-1.07-2.27-1.07-3.39V25.18c0-1.16.37-2.31.99-3.02.95-1.03 2.35-1.12 3.47-1.12h18.55v4.34h-15.62c-.49 0-1.07.04-1.49.41-.45.41-.45.99-.45 1.4v5.82h17.14v4.34H142.1v6.78c0 .45.16.91.41 1.12.33.33.99.37 1.86.37h15.45v4.34h-18.79zM176.66 23.45c.58-1.32 1.36-2.73 4.42-2.73 3.06 0 3.84 1.4 4.42 2.73l11.15 26.52h-5.78l-9.13-23.09c-.12-.37-.25-.83-.66-.83-.45 0-.58.5-.7.83l-9.13 23.09h-5.78l11.19-26.52zM208.98 21.05v11.86h13.72c1.36 0 4.21.16 5.66 2.77.79 1.41 1.07 3.72 1.07 5.74 0 4.05-1.12 5.74-1.32 6.03-.54.74-2.19 2.52-5.7 2.52h-15.37c-1.49 0-2.27-.79-2.6-1.16-.79-.95-.91-2.15-.91-3.22V21.05h5.45zm0 22.81c0 .25 0 .99.25 1.32.33.45.99.45 1.57.45h8.8c.41 0 2.27 0 3.18-.79 1.03-.87 1.03-2.4 1.03-3.59 0-1.28-.04-2.64-1.16-3.47-.79-.58-1.78-.54-2.77-.54h-10.91v6.62zM243.45 49.97V25.39h-11.28v-4.34h28.05v4.34H248.9v24.58h-5.45zM271.81 23.98c1.03-2.44 2.15-3.26 4.75-3.26 2.48 0 3.72.83 4.75 3.26l10.91 25.99h-5.74l-2.97-7.31h-13.92l-2.93 7.31h-5.74l10.89-25.99zm-.83 14.79h11.11L277.39 27c-.17-.41-.46-1.2-.83-1.2s-.66.79-.83 1.2l-4.75 11.77z"/></g><g fill="#B71828"><path d="M96.01 61.01c-.26.25-.39.64-.39 1.17v8.3c0 .17-.03.28-.09.33-.06.05-.17.08-.34.08h-1.1c-.15 0-.27-.03-.34-.08-.08-.05-.11-.16-.11-.33V62.5c0-.47.05-.93.16-1.37.11-.44.29-.83.56-1.15.27-.33.63-.59 1.1-.79.46-.2 1.06-.3 1.79-.3H102c.17 0 .28.04.32.12.05.08.07.19.07.32v.88c0 .15-.02.26-.07.32-.04.06-.15.09-.32.09h-4.73c-.59.01-1 .14-1.26.39zM114.35 64.88c0 .87-.11 1.68-.33 2.43-.22.75-.55 1.42-.98 1.99-.43.57-.99 1.02-1.65 1.35-.67.33-1.45.49-2.33.49-.43 0-.89-.02-1.38-.07a7.78 7.78 0 0 1-1.59-.33v4.44c0 .14-.03.22-.08.26-.05.04-.14.06-.26.06h-1.28a.49.49 0 0 1-.27-.06c-.06-.04-.09-.12-.09-.26v-15.3c0-.2.09-.33.27-.39.76-.33 1.55-.56 2.35-.67.81-.12 1.58-.17 2.31-.17.91 0 1.71.16 2.38.47.67.31 1.22.75 1.66 1.3.43.56.76 1.21.97 1.98.2.75.3 1.58.3 2.48zm-2.08 0c0-.83-.08-1.54-.25-2.11-.17-.57-.41-1.04-.72-1.39-.31-.35-.69-.6-1.12-.76-.43-.16-.92-.24-1.47-.24-.4 0-.85.04-1.35.11-.5.07-.93.18-1.28.32V69c.58.17 1.08.28 1.5.33.42.05.8.08 1.15.08.52 0 .99-.08 1.43-.24.44-.16.81-.42 1.12-.77.31-.36.56-.82.73-1.4.18-.58.26-1.28.26-2.12zM121.71 72.86c-.35 1.05-.8 1.78-1.35 2.19-.55.41-1.25.62-2.1.62-.21 0-.48-.01-.8-.04-.32-.03-.67-.1-1.05-.21-.24-.06-.33-.18-.27-.37l.25-1c.03-.12.08-.2.14-.22.06-.02.14-.02.25.01.29.08.51.13.65.15.14.02.32.03.51.03.52 0 .94-.1 1.26-.31.32-.21.58-.61.78-1.22.01-.04.05-.15.11-.32s.13-.35.2-.54c.07-.19.13-.37.18-.54.05-.17.09-.28.1-.32h-.43c-.21 0-.4-.04-.56-.1-.16-.07-.3-.3-.42-.7l-3.52-10.83c-.04-.17.02-.25.21-.25h1.53c.17 0 .28.08.32.23.03.11.09.32.2.63.1.31.22.68.35 1.1.14.42.28.87.43 1.35.15.48.3.93.44 1.35.14.42.25.79.35 1.11.1.32.16.53.2.62l1.17 4.02h.14c.05-.12.14-.4.28-.82.14-.43.28-.88.42-1.36.14-.48.28-.91.41-1.3.13-.39.2-.6.22-.63.01-.03.07-.17.15-.42.08-.25.19-.57.32-.95s.27-.8.42-1.25.3-.89.45-1.34c.14-.44.28-.85.41-1.22.13-.37.23-.67.31-.88.04-.15.15-.23.32-.23h1.46c.18 0 .25.08.21.25l-4.65 13.71zM129.96 70.83c-.06.04-.15.06-.28.06h-1.26a.49.49 0 0 1-.27-.06c-.06-.04-.09-.13-.09-.28V59.83c0-.17.07-.37.2-.59.14-.23.39-.34.75-.34h8.2c.37 0 .62.11.75.34.14.23.2.43.2.59v10.72c0 .15-.03.25-.08.28-.05.04-.15.06-.28.06h-1.26c-.12 0-.21-.02-.28-.06-.06-.04-.09-.13-.09-.28v-9.92h-6.15v9.92c.03.15 0 .25-.06.28zM143.05 70.83c-.06.04-.15.06-.28.06h-1.26a.49.49 0 0 1-.27-.06c-.06-.04-.09-.13-.09-.28V59.83c0-.17.07-.37.2-.59.14-.23.39-.34.75-.34h8.2c.37 0 .62.11.75.34.14.23.2.43.2.59v10.72c0 .15-.03.25-.08.28-.05.04-.15.06-.28.06h-1.26c-.12 0-.21-.02-.28-.06-.06-.04-.09-.13-.09-.28v-9.92h-6.15v9.92c.03.15 0 .25-.06.28zM163.56 69.77c0 .3-.11.5-.34.59-.69.3-1.43.51-2.23.62-.8.11-1.57.16-2.3.16-.99 0-1.8-.1-2.43-.31-.63-.21-1.13-.49-1.5-.84-.36-.35-.62-.76-.76-1.21-.15-.46-.22-.94-.22-1.44 0-.52.09-1.03.26-1.52.17-.5.46-.93.86-1.31.4-.38.91-.68 1.54-.91.63-.23 1.4-.34 2.32-.34h2.79v-.5c0-.36-.04-.69-.1-.98-.07-.29-.2-.54-.4-.75-.2-.21-.48-.37-.83-.49-.36-.11-.82-.17-1.38-.17-.53 0-1.1.04-1.7.14-.6.09-1.09.2-1.47.32-.12.05-.22.06-.3.05-.08-.01-.13-.08-.16-.21l-.28-.98a.335.335 0 0 1-.01-.22c.02-.07.09-.12.22-.17.58-.24 1.24-.41 1.99-.51.75-.1 1.43-.15 2.06-.15 1.52 0 2.63.34 3.34 1.02.7.68 1.05 1.67 1.05 2.96v7.15zM161.53 65h-2.65c-.27 0-.59.02-.95.06-.36.04-.7.14-1.02.3-.32.16-.59.4-.81.71-.22.31-.33.74-.33 1.29 0 .41.08.76.23 1.04.15.28.36.5.62.66.26.16.56.27.91.34s.73.1 1.14.1c.14 0 .32 0 .54-.01.22-.01.46-.03.73-.07.27-.04.54-.08.81-.14.27-.05.53-.13.78-.22V65zM177.71 69.4c.52 0 1.02-.07 1.52-.2.49-.14.91-.29 1.25-.46.14-.08.24-.09.3-.06.06.04.12.09.16.17l.46.96c.12.2.08.36-.11.49-.58.32-1.21.54-1.9.66s-1.34.17-1.97.17c-1.68 0-2.95-.51-3.84-1.54-.89-1.03-1.33-2.55-1.33-4.58 0-.97.13-1.85.38-2.64.25-.78.61-1.45 1.07-2.01.46-.56 1.03-.98 1.7-1.28.67-.3 1.42-.44 2.26-.44.61 0 1.19.06 1.75.18s1.09.33 1.61.62c.21.12.26.28.14.48l-.48.94c-.04.09-.09.16-.15.19-.05.04-.15.02-.28-.06-.37-.17-.76-.3-1.19-.41-.43-.11-.88-.16-1.37-.16-.61 0-1.13.13-1.57.38-.44.25-.79.59-1.07 1.02-.28.43-.49.91-.62 1.46-.13.55-.19 1.12-.19 1.73s.05 1.18.16 1.71.29 1 .56 1.4c.27.4.62.72 1.06.95.44.22 1 .33 1.69.33zM193.82 64.84c0 2.04-.46 3.6-1.38 4.68-.92 1.08-2.25 1.62-4 1.62-1.72 0-3.02-.52-3.92-1.58-.9-1.05-1.34-2.6-1.34-4.66 0-1.01.13-1.9.4-2.67.27-.78.64-1.43 1.12-1.97a4.65 4.65 0 0 1 1.7-1.21c.65-.28 1.36-.41 2.12-.41 1.73 0 3.05.55 3.96 1.64.88 1.11 1.34 2.62 1.34 4.56zm-1.99.07c0-.59-.04-1.17-.14-1.73-.09-.56-.26-1.04-.5-1.46a2.82 2.82 0 0 0-1.01-1.02c-.43-.26-.97-.39-1.64-.39-.58 0-1.08.12-1.51.36-.43.24-.78.57-1.05.98-.27.41-.48.89-.62 1.44a7.03 7.03 0 0 0-.21 1.74c0 .68.05 1.31.16 1.88.11.57.29 1.06.55 1.46.26.4.6.72 1.02.95.42.23.95.34 1.59.34.64 0 1.18-.13 1.61-.39.44-.26.78-.6 1.04-1.03.26-.43.44-.91.55-1.46.1-.53.16-1.1.16-1.67zM196.31 69.27c.38-.43.66-.92.85-1.49.18-.56.34-1.29.48-2.19l.85-5.6c.04-.4.18-.68.41-.85.23-.17.56-.25 1-.25h5.64c.5 0 .82.1.94.31.12.2.18.47.18.79v9.3l.66.04c.32.03.51.13.58.31.07.18.09.33.08.47l-.25 4.04c0 .2-.08.3-.25.3h-1.26c-.14 0-.21-.1-.23-.3l-.14-3.27h-8.64l-.23 3.34c0 .11-.03.18-.08.22-.05.04-.11.06-.17.06h-1.26c-.06 0-.11-.02-.15-.05-.04-.03-.07-.11-.08-.23l-.24-4.08c-.02-.18.02-.35.11-.51.09-.16.29-.25.59-.29l.61-.07zm8.36-8.64h-4.46l-.55 3.78c-.12.82-.22 1.5-.31 2.04s-.17.98-.25 1.33c-.08.35-.18.64-.28.86-.11.22-.23.43-.37.63h6.22v-8.64zM215.06 58.64c.87 0 1.62.12 2.25.36.63.24 1.15.59 1.55 1.04.4.45.7.98.9 1.6.2.62.3 1.3.3 2.04 0 .37-.05.66-.14.89-.09.23-.22.41-.38.54-.16.13-.34.22-.55.28-.2.05-.42.08-.65.08h-6.58c0 .72.1 1.32.3 1.83.2.5.46.91.79 1.22.33.31.71.54 1.15.67.44.14.91.2 1.41.2.5 0 1-.06 1.49-.19s.89-.28 1.22-.45c.18-.11.33-.07.44.12l.48.96c.11.21.06.36-.14.46-.55.33-1.14.56-1.77.67-.63.11-1.25.17-1.86.17-.85 0-1.62-.12-2.3-.36-.68-.24-1.25-.62-1.73-1.12-.47-.5-.83-1.14-1.08-1.92-.25-.78-.38-1.7-.38-2.79 0-1.01.13-1.9.4-2.68.27-.78.64-1.44 1.11-1.98.47-.53 1.03-.94 1.67-1.22.64-.28 1.34-.42 2.1-.42zm3.13 5.24c0-.47-.05-.93-.14-1.36-.09-.43-.26-.81-.49-1.14-.24-.33-.56-.59-.96-.78-.41-.19-.91-.28-1.52-.28-.51 0-.95.1-1.34.3-.39.2-.72.46-.99.79s-.48.7-.63 1.13c-.15.43-.25.88-.28 1.35h6.35zM222.53 59.24c0-.15.03-.25.09-.3.06-.04.15-.07.28-.07h1.25c.14 0 .23.02.29.07.05.05.08.14.08.3v8.82h.09c.36-.58.7-1.11.99-1.59.3-.48.63-.99 1.01-1.54l3.44-5.32c.15-.26.3-.44.43-.55.14-.11.36-.16.66-.16h.59c.26 0 .47.08.65.23.17.15.26.38.26.68v10.76c0 .14-.03.22-.08.26-.05.04-.15.06-.28.06h-1.26c-.12 0-.21-.02-.28-.06-.06-.04-.09-.12-.09-.26v-8.73h-.14c-.18.27-.35.53-.49.77-.15.24-.29.47-.43.71s-.29.48-.45.72c-.15.24-.32.5-.5.78l-3.56 5.39c-.17.26-.33.44-.49.54-.16.1-.37.15-.63.15h-.53c-.27 0-.49-.07-.66-.22-.17-.14-.25-.37-.25-.67V59.24zm4.94-1.55c-.76 0-1.45-.24-2.08-.71a7.142 7.142 0 0 1-1.6-1.69.606.606 0 0 1-.08-.18c-.02-.08.03-.16.15-.25l.44-.39c.14-.08.23-.1.27-.08.05.02.12.08.23.17.44.49.9.87 1.38 1.14.48.28.94.41 1.38.41.33 0 .72-.1 1.17-.31.44-.21.97-.64 1.6-1.31.12-.11.21-.16.25-.15.05.01.11.04.18.08l.46.37c.12.12.17.22.15.3-.02.08-.05.14-.08.18-.64.87-1.29 1.49-1.95 1.86-.67.37-1.29.56-1.87.56zM240.65 69.4c.52 0 1.02-.07 1.52-.2.49-.14.91-.29 1.25-.46.14-.08.24-.09.3-.06.06.04.12.09.16.17l.46.96c.12.2.08.36-.11.49-.58.32-1.21.54-1.9.66s-1.34.17-1.97.17c-1.68 0-2.95-.51-3.84-1.54-.89-1.03-1.33-2.55-1.33-4.58 0-.97.13-1.85.38-2.64.25-.78.61-1.45 1.07-2.01.46-.56 1.03-.98 1.7-1.28.67-.3 1.42-.44 2.26-.44.61 0 1.19.06 1.75.18s1.09.33 1.61.62c.21.12.26.28.14.48l-.48.94c-.04.09-.09.16-.15.19-.05.04-.15.02-.28-.06-.37-.17-.76-.3-1.19-.41-.43-.11-.88-.16-1.37-.16-.61 0-1.13.13-1.57.38-.44.25-.79.59-1.07 1.02-.28.43-.49.91-.62 1.46-.13.55-.19 1.12-.19 1.73s.05 1.18.16 1.71.29 1 .56 1.4c.27.4.62.72 1.06.95.44.22 1.01.33 1.69.33zM251.12 70.81c-.06.05-.17.08-.32.08h-1.12c-.15 0-.26-.03-.32-.08s-.09-.16-.09-.33v-9.85h-3.54c-.17 0-.28-.04-.33-.1a.499.499 0 0 1-.08-.29v-.9c0-.14.03-.25.08-.32.05-.08.16-.12.33-.12h9.18c.18 0 .3.04.34.12.05.08.07.19.07.32v.9c0 .12-.02.22-.07.29-.04.07-.16.1-.34.1h-3.7v9.85c0 .17-.03.28-.09.33zM265.14 64.45c.73.24 1.25.64 1.55 1.18.3.54.46 1.12.46 1.75 0 .53-.1 1.01-.31 1.44-.2.43-.48.8-.83 1.11-.35.31-.77.55-1.25.72-.48.17-1 .25-1.57.25h-5.21c-.32 0-.56-.08-.72-.25-.16-.17-.24-.39-.24-.66V59.81c0-.29.08-.51.25-.67.17-.16.4-.24.71-.24h4.98c1.07 0 1.94.24 2.63.72.68.48 1.03 1.24 1.03 2.27 0 .52-.13 1-.4 1.44-.27.44-.62.77-1.06.98l-.02.14zm-6.12-.73h3.86c.15 0 .33-.03.54-.08.21-.05.39-.14.56-.26.17-.12.31-.28.44-.49.12-.2.18-.47.18-.78 0-.41-.15-.75-.43-1.04-.29-.29-.68-.43-1.17-.43h-3.98v3.08zm6.08 3.54c0-.59-.19-1.07-.58-1.44-.39-.37-.97-.55-1.75-.55h-3.75v4.07h3.72c.49 0 .88-.07 1.19-.2.3-.14.54-.31.72-.52.17-.2.29-.43.35-.67.07-.25.1-.48.1-.69zM269.67 59.24c0-.15.03-.25.09-.3.06-.04.15-.07.28-.07h1.25c.14 0 .23.02.29.07.05.05.08.14.08.3v8.82h.09c.36-.58.7-1.11.99-1.59.3-.48.63-.99 1.01-1.54l3.44-5.32c.15-.26.3-.44.43-.55.14-.11.36-.16.66-.16h.59c.26 0 .47.08.65.23.17.15.26.38.26.68v10.76c0 .14-.03.22-.08.26-.05.04-.15.06-.28.06h-1.26c-.12 0-.21-.02-.28-.06-.06-.04-.09-.12-.09-.26v-8.73h-.14c-.18.27-.35.53-.49.77s-.29.47-.43.71c-.15.24-.29.48-.45.72-.15.24-.32.5-.5.78l-3.56 5.39c-.17.26-.33.44-.49.54-.16.1-.37.15-.63.15h-.53c-.27 0-.49-.07-.66-.22-.17-.14-.25-.37-.25-.67V59.24zM291.23 58.9c.28 0 .51.08.7.23.19.15.29.39.29.71V70.6c0 .14-.04.22-.12.25-.08.03-.17.05-.3.05h-1.21c-.14 0-.23-.02-.28-.06-.05-.04-.08-.12-.08-.26v-4.59h-2.91c-.61 0-1.11.09-1.51.29-.4.19-.71.63-.92 1.31l-.91 3.02c-.03.12-.09.2-.17.24-.09.04-.17.06-.24.06h-1.35c-.12 0-.2-.02-.24-.07a.227.227 0 0 1-.06-.16v-.14l1.05-3.27c.12-.41.3-.78.53-1.11.23-.33.61-.56 1.14-.7-.01 0-.02-.01-.02-.02-.75-.21-1.29-.59-1.62-1.14-.32-.55-.49-1.17-.49-1.85 0-.5.09-.97.26-1.39.17-.43.43-.8.78-1.12.34-.32.76-.57 1.25-.75.49-.18 1.04-.27 1.67-.27h4.76zm-4.62 1.69c-.39 0-.72.06-.99.17-.27.12-.48.26-.65.45-.17.18-.29.38-.36.61-.07.22-.11.44-.11.65 0 .53.17.99.5 1.36.33.37.92.56 1.77.56h3.46V60.6h-3.62z"/></g></svg>