<svg xmlns="http://www.w3.org/2000/svg" viewBox="0 0 102.05 100.83"><path fill="#B71828" d="M95.19 28.78c.64-1.12 1.28-2.23 1.93-3.34-9.28-13.17-24.6-21.79-41.9-21.79C26.98 3.66 4 26.64 4 54.89c0 8.89 2.29 17.26 6.29 24.55.84-.85 1.7-1.69 2.56-2.52a47.522 47.522 0 0 1-5.39-22.03c0-26.34 21.43-47.77 47.77-47.77 16.71 0 31.43 8.63 39.96 21.66z"/><circle cx="55.63" cy="55.29" r="43.62" fill="#B71828"/><g fill="#FFF" fill-rule="evenodd" clip-rule="evenodd"><path d="M85.62 46.95v-.02l-.22-.22a4.547 4.547 0 0 0-3.23-1.34h-12.6V39.6c0-1.72-.67-3.35-1.9-4.57a6.44 6.44 0 0 0-4.57-1.9H32.67c-1.72 0-3.35.67-4.57 1.9l-.31.32v.02a6.387 6.387 0 0 0-1.59 4.23v20.35c0 1.72.67 3.34 1.9 4.57 1.23 1.22 2.85 1.9 4.56 1.9h15.68v7.64l4.79 1.28 4.45-7.71.13.11c.83.73 1.88 1.12 2.99 1.12h3.4l3.64 6.3 3.38-.9v-5.39h11.07c1.21 0 2.35-.48 3.22-1.34a4.54 4.54 0 0 0 1.34-3.23V49.94a4.606 4.606 0 0 0-1.13-2.99zm-33.5 25.93l-1.65-.44V64.3h-17.8c-1.15 0-2.24-.45-3.07-1.28a4.314 4.314 0 0 1-1.28-3.07V39.6c0-1.16.45-2.24 1.28-3.07l.12-.13c.81-.75 1.85-1.16 2.95-1.16H63.1c1.16 0 2.25.45 3.08 1.28.82.82 1.28 1.92 1.28 3.08v5.78H60.7c-1.22 0-2.36.48-3.23 1.34-.86.86-1.34 2.01-1.34 3.23V64.3c0 .44.08.85.21 1.26l-4.22 7.32zm33.13-8.58c0 .81-.32 1.58-.9 2.17-.59.58-1.36.9-2.17.9H69.62v5.74l-1.17.31-3.49-6.05H60.7c-.81 0-1.58-.32-2.17-.9l-.1-.1c-.05-.05-.08-.11-.12-.16-.43-.54-.68-1.21-.68-1.91V49.94c0-.82.32-1.59.9-2.17.58-.58 1.35-.9 2.17-.9h21.48c.78 0 1.51.29 2.08.82l.09.09c.58.58.9 1.35.9 2.17V64.3z"/><path d="M34.04 53.89h17.41v2.29H34.04zM31.48 46.91h17.41v2.29H31.48zM38.72 41.55h17.41v2.29H38.72zM62.9 61.21h19.57v2.09H62.9zM66.53 55.82h15.94v2.09H66.53zM60.81 50.43h15.94v2.09H60.81z"/></g><text fill="#FFF" font-family="'SegoeUI'" font-size="13.725" transform="translate(-8.245 118.717)">Посоветоваться</text></svg>