<?xml version="1.0" encoding="UTF-8"?>
<svg xmlns="http://www.w3.org/2000/svg" xmlns:xlink="http://www.w3.org/1999/xlink" width="100px" height="97px" viewBox="0 0 97 97" version="1.1">
<g id="surface1">
<path style=" stroke:none;fill-rule:nonzero;fill:rgb(71.764706%,9.411765%,15.686275%);fill-opacity:1;" d="M 90.480469 27.730469 C 91.085938 26.65625 91.695312 25.589844 92.3125 24.527344 C 83.492188 11.882812 68.929688 3.609375 52.488281 3.609375 C 25.644531 3.617188 3.800781 25.679688 3.800781 52.796875 C 3.800781 61.328125 5.980469 69.363281 9.78125 76.363281 C 10.578125 75.546875 11.398438 74.738281 12.214844 73.941406 C 8.839844 67.414062 7.082031 60.160156 7.089844 52.796875 C 7.089844 27.511719 27.460938 6.941406 52.496094 6.941406 C 68.378906 6.941406 82.371094 15.222656 90.480469 27.730469 Z M 90.480469 27.730469 "/>
<path style=" stroke:none;fill-rule:nonzero;fill:rgb(71.764706%,9.411765%,15.686275%);fill-opacity:1;" d="M 94.339844 53.179688 C 94.339844 76.304688 75.777344 95.050781 52.878906 95.050781 C 29.980469 95.050781 11.414062 76.304688 11.414062 53.179688 C 11.414062 30.054688 29.980469 11.308594 52.878906 11.308594 C 75.777344 11.308594 94.339844 30.054688 94.339844 53.179688 Z M 94.339844 53.179688 "/>
<path style=" stroke:none;fill-rule:evenodd;fill:rgb(100%,100%,100%);fill-opacity:1;" d="M 81.382812 45.175781 L 81.382812 45.15625 L 81.175781 44.945312 C 80.359375 44.117188 79.257812 43.65625 78.105469 43.65625 L 66.128906 43.65625 L 66.128906 38.117188 C 66.128906 36.46875 65.492188 34.902344 64.320312 33.730469 C 63.171875 32.5625 61.609375 31.90625 59.976562 31.90625 L 31.054688 31.90625 C 29.417969 31.90625 27.867188 32.550781 26.710938 33.730469 L 26.414062 34.039062 L 26.414062 34.058594 C 25.4375 35.179688 24.902344 36.625 24.902344 38.117188 L 24.902344 57.652344 C 24.902344 59.304688 25.539062 60.859375 26.710938 62.039062 C 27.878906 63.210938 29.417969 63.863281 31.042969 63.863281 L 45.949219 63.863281 L 45.949219 71.199219 L 50.5 72.425781 L 54.730469 65.023438 L 54.855469 65.128906 C 55.644531 65.832031 56.640625 66.207031 57.695312 66.207031 L 60.929688 66.207031 L 64.386719 72.253906 L 67.601562 71.390625 L 67.601562 66.214844 L 78.121094 66.214844 C 79.273438 66.214844 80.355469 65.753906 81.183594 64.929688 C 82 64.109375 82.460938 62.992188 82.457031 61.828125 L 82.457031 48.042969 C 82.449219 46.988281 82.070312 45.96875 81.382812 45.175781 Z M 49.539062 70.066406 L 47.972656 69.640625 L 47.972656 61.828125 L 31.054688 61.828125 C 29.960938 61.828125 28.925781 61.398438 28.136719 60.601562 C 27.355469 59.820312 26.917969 58.761719 26.917969 57.652344 L 26.917969 38.117188 C 26.917969 37.003906 27.347656 35.96875 28.136719 35.171875 L 28.25 35.046875 C 29.019531 34.328125 30.007812 33.933594 31.054688 33.933594 L 59.976562 33.933594 C 61.078125 33.933594 62.117188 34.363281 62.90625 35.160156 C 63.683594 35.949219 64.121094 37.003906 64.121094 38.117188 L 64.121094 43.667969 L 57.695312 43.667969 C 56.535156 43.667969 55.453125 44.128906 54.625 44.953125 C 53.808594 45.777344 53.351562 46.882812 53.351562 48.054688 L 53.351562 61.828125 C 53.351562 62.25 53.429688 62.644531 53.550781 63.039062 Z M 81.03125 61.828125 C 81.03125 62.605469 80.726562 63.34375 80.175781 63.910156 C 79.613281 64.46875 78.882812 64.777344 78.113281 64.777344 L 66.175781 64.777344 L 66.175781 70.285156 L 65.0625 70.582031 L 61.746094 64.777344 L 57.695312 64.777344 C 56.925781 64.777344 56.195312 64.46875 55.632812 63.910156 L 55.539062 63.816406 C 55.492188 63.769531 55.460938 63.710938 55.425781 63.660156 C 55.015625 63.144531 54.777344 62.5 54.777344 61.828125 L 54.777344 48.042969 C 54.777344 47.257812 55.082031 46.519531 55.632812 45.960938 C 56.183594 45.402344 56.917969 45.097656 57.695312 45.097656 L 78.113281 45.097656 C 78.855469 45.097656 79.546875 45.375 80.089844 45.882812 L 80.175781 45.96875 C 80.726562 46.527344 81.03125 47.265625 81.03125 48.054688 Z M 81.03125 61.828125 "/>
<path style=" stroke:none;fill-rule:evenodd;fill:rgb(100%,100%,100%);fill-opacity:1;" d="M 32.355469 51.835938 L 48.902344 51.835938 L 48.902344 54.035156 L 32.355469 54.035156 Z M 29.921875 45.136719 L 46.46875 45.136719 L 46.46875 47.332031 L 29.921875 47.332031 Z M 36.804688 39.992188 L 53.351562 39.992188 L 53.351562 42.1875 L 36.804688 42.1875 Z M 59.789062 58.863281 L 78.390625 58.863281 L 78.390625 60.867188 L 59.789062 60.867188 Z M 63.238281 53.6875 L 78.390625 53.6875 L 78.390625 55.695312 L 63.238281 55.695312 Z M 57.800781 48.515625 L 72.953125 48.515625 L 72.953125 50.519531 L 57.800781 50.519531 Z M 57.800781 48.515625 "/>
</g>
</svg>
