<?xml version="1.0" encoding="UTF-8"?>
<svg xmlns="http://www.w3.org/2000/svg" xmlns:xlink="http://www.w3.org/1999/xlink" width="100px" height="97px" viewBox="0 0 94 97" version="1.1">
<g id="surface1">
<path style=" stroke:none;fill-rule:nonzero;fill:rgb(100%,100%,100%);fill-opacity:1;" d="M 40.507812 92.566406 C 40.964844 93.671875 41.410156 94.777344 41.855469 95.882812 C 56.773438 96.582031 71.800781 90.246094 81.640625 77.550781 C 97.699219 56.820312 93.945312 26.855469 73.257812 10.761719 C 66.976562 5.867188 59.558594 2.640625 51.699219 1.386719 C 51.847656 2.492188 51.980469 3.597656 52.089844 4.703125 C 59.089844 5.972656 65.679688 8.921875 71.292969 13.296875 C 90.578125 28.304688 94.09375 56.246094 79.109375 75.582031 C 69.605469 87.847656 54.910156 93.730469 40.507812 92.566406 Z M 40.507812 92.566406 "/>
<path style=" stroke:none;fill-rule:nonzero;fill:rgb(71.764706%,9.411765%,15.686275%);fill-opacity:1;" d="M 83.707031 48.800781 C 83.707031 71.1875 65.601562 89.332031 43.261719 89.332031 C 20.925781 89.332031 2.820312 71.1875 2.820312 48.800781 C 2.820312 26.417969 20.925781 8.269531 43.261719 8.269531 C 65.601562 8.269531 83.707031 26.417969 83.707031 48.800781 Z M 83.707031 48.800781 "/>
<path style=" stroke:none;fill-rule:nonzero;fill:rgb(100%,100%,100%);fill-opacity:1;" d="M 23.800781 67.535156 L 23.597656 66.921875 C 19.945312 55.78125 22.355469 49.480469 31.40625 46.496094 C 34.011719 45.644531 36.867188 45.207031 39.628906 44.789062 C 41.964844 44.433594 44.3125 44.074219 46.128906 43.550781 C 49.289062 42.640625 52.027344 40.921875 50.867188 34.695312 L 45.832031 35.921875 L 50.707031 19.320312 L 62.625 31.851562 L 58.273438 32.914062 C 60.992188 45.457031 54.351562 49.097656 48.234375 50.875 C 45.765625 51.589844 43.261719 51.96875 40.84375 52.332031 C 38.3125 52.714844 35.753906 53.105469 33.789062 53.753906 C 30.894531 54.710938 28.28125 56.738281 30.847656 64.578125 L 31.050781 65.191406 Z M 51.859375 33.117188 L 51.996094 33.769531 C 53.75 41.730469 49.6875 43.878906 46.488281 44.796875 C 44.589844 45.34375 42.207031 45.707031 39.898438 46.0625 C 37.117188 46.480469 34.316406 46.90625 31.820312 47.734375 C 26.046875 49.628906 20.714844 53.289062 24.636719 65.910156 L 29.410156 64.355469 C 27.390625 57.742188 28.621094 54.078125 33.371094 52.519531 C 35.4375 51.832031 38.050781 51.441406 40.574219 51.058594 C 43.023438 50.6875 45.480469 50.316406 47.863281 49.628906 C 53.890625 47.890625 59.675781 44.5 56.867188 32.578125 L 56.71875 31.945312 L 60.136719 31.121094 L 51.3125 21.835938 L 47.695312 34.128906 Z M 51.859375 33.117188 "/>
<path style=" stroke:none;fill-rule:evenodd;fill:rgb(100%,100%,100%);fill-opacity:1;" d="M 17.164062 36.414062 L 16.410156 38.671875 C 17.535156 39.046875 18.507812 39.566406 19.371094 40.207031 C 18.433594 41.386719 17.636719 42.667969 16.914062 44.015625 L 19.007812 45.148438 C 19.648438 43.960938 20.332031 42.847656 21.132812 41.824219 C 22.113281 42.921875 22.929688 44.203125 23.644531 45.585938 L 25.75 44.480469 C 24.90625 42.855469 23.929688 41.339844 22.726562 40.03125 C 23.8125 38.988281 25.089844 38.089844 26.609375 37.363281 L 25.601562 35.207031 C 23.773438 36.0625 22.261719 37.148438 20.964844 38.421875 C 19.871094 37.585938 18.617188 36.898438 17.164062 36.414062 Z M 17.164062 36.414062 "/>
<path style=" stroke:none;fill-rule:nonzero;fill:rgb(100%,100%,100%);fill-opacity:1;" d="M 58.117188 62.070312 C 56.503906 62.070312 54.984375 61.4375 53.84375 60.296875 C 52.703125 59.152344 52.070312 57.628906 52.070312 56.011719 C 52.070312 54.394531 52.703125 52.871094 53.84375 51.730469 C 54.972656 50.589844 56.511719 49.949219 58.117188 49.953125 C 59.730469 49.953125 61.25 50.585938 62.402344 51.730469 C 63.539062 52.863281 64.175781 54.40625 64.171875 56.011719 C 64.171875 57.636719 63.542969 59.152344 62.402344 60.296875 C 61.265625 61.433594 59.722656 62.074219 58.117188 62.070312 Z M 58.117188 51.820312 C 57.003906 51.820312 55.957031 52.257812 55.167969 53.046875 C 54.378906 53.839844 53.945312 54.886719 53.945312 56.003906 C 53.945312 57.117188 54.378906 58.167969 55.167969 58.957031 C 55.957031 59.746094 57.003906 60.183594 58.117188 60.183594 C 59.230469 60.183594 60.277344 59.746094 61.066406 58.957031 C 61.855469 58.167969 62.289062 57.117188 62.289062 56.003906 C 62.289062 54.886719 61.855469 53.839844 61.066406 53.046875 C 60.285156 52.261719 59.222656 51.820312 58.117188 51.820312 Z M 58.117188 51.820312 "/>
<path style=" stroke:none;fill-rule:evenodd;fill:rgb(100%,100%,100%);fill-opacity:1;" d="M 45.953125 56.960938 L 43.367188 56.503906 C 43.144531 57.789062 42.734375 58.929688 42.1875 59.972656 C 40.761719 59.144531 39.238281 58.484375 37.652344 57.90625 L 36.773438 60.371094 C 38.15625 60.871094 39.480469 61.449219 40.722656 62.144531 C 39.695312 63.390625 38.433594 64.488281 37.050781 65.492188 L 38.589844 67.617188 C 40.222656 66.429688 41.707031 65.128906 42.929688 63.605469 C 44.300781 64.667969 45.488281 65.953125 46.445312 67.40625 L 48.632812 65.953125 C 47.40625 64.097656 45.980469 62.628906 44.394531 61.421875 C 45.15625 60.03125 45.683594 58.523438 45.953125 56.960938 Z M 45.953125 56.960938 "/>
<path style=" stroke:none;fill-rule:nonzero;fill:rgb(100%,100%,100%);fill-opacity:1;" d="M 37.5625 41.136719 C 35.953125 41.136719 34.414062 40.5 33.277344 39.359375 C 32.140625 38.222656 31.503906 36.679688 31.507812 35.070312 C 31.507812 33.453125 32.136719 31.929688 33.277344 30.785156 C 34.410156 29.644531 35.953125 29.003906 37.5625 29.011719 C 39.175781 29.011719 40.695312 29.640625 41.84375 30.785156 C 42.980469 31.917969 43.621094 33.460938 43.617188 35.070312 C 43.617188 36.679688 42.980469 38.222656 41.84375 39.359375 C 40.707031 40.5 39.167969 41.136719 37.5625 41.136719 Z M 37.5625 30.886719 C 36.449219 30.886719 35.402344 31.324219 34.613281 32.113281 C 33.824219 32.902344 33.386719 33.953125 33.386719 35.070312 C 33.386719 36.183594 33.824219 37.234375 34.613281 38.023438 C 35.402344 38.8125 36.449219 39.25 37.5625 39.25 C 38.671875 39.25 39.722656 38.8125 40.507812 38.023438 C 41.296875 37.234375 41.734375 36.183594 41.734375 35.070312 C 41.734375 33.953125 41.296875 32.902344 40.507812 32.113281 C 39.730469 31.328125 38.667969 30.886719 37.5625 30.886719 Z M 37.5625 30.886719 "/>
</g>
</svg>
